<svg xmlns="http://www.w3.org/2000/svg" viewBox="0 0 1800 660"><path fill="#EBEBEB" stroke="#949494" stroke-width=".5" stroke-opacity=".8" d="M330.2 282l-1 .3-3.3 1.9-1.9.7-1.7.3-1.3-.1-.7-1.1.1-1.7-.3-1.5-.3-.8.5-2.2 1.1-1.2 1.5-1 2.4.4 5 1.4 1 1.3v.9l-.9 1.4-.2 1zm651.6-2.1l1.4 1 2.9 4.5 1.9 4 3.8 1.4 2.1 1.6 2.7 2.4 1.3 2.4 1.9 7.3.2 4.4-.5 2-.5.5-1.7 7.1.4 3.6v2.4l-1.4.9-1 1.5 1.6 5.9-.2 2.5.1 2.9 2.8 6.5 1.7 2 1.5 1 1.9 6 1.1 1 4.6-.6 2.2.7.9 1.4.2 1-.3 3.4 1.1 2.6 1.5 2.6v1.6l-1 2.6-1.8 3.1-2.4 1.2-2.7 1-1.3 2.4-.6 2.5-1.2 1.9-.7 2.1-1.2 4.2-.3 1.5-1.8 1.5-2.8.6-2.5.1-1.7.9-.9 1.4-1.6 1.2-1 .5v1.3l1.2 2.7 1.3 2.2v1.7l-.7.5-2.1-.2-.4.6-.2 1.9-.5 1.6-.8 1-1.5 1.1-2.7-.4-2.5-1.7-1.3-.5h-.8l-.2-4-1.1-3.1-4-7.6-13-7.4-3.1-3.3-1.3-2.8-1.4-2.6 1.3-.1 1.3.7 1.6.8.7-1.3-.7-2.9-3.4-6.8-.3-1.9 1.6-5.7 2.7-6.4-.2-7.8.8-5.9-.9-3.8-.5-4.7 2-6.3 1.7-1.5 1.1-2 .1-6.7-3.9-3.1-4.5-.6.1-2.3.6-3.6-.3-1.2.3-2.1-1.1-2.8-1.8-2 1.7-3.5 2.5-4.3 2.3-3.4 2.8-3.5 1.9-3.4 2-2.9 1.7-.9.9.6.5 1.3-.1 3.8.6 1.3 1.2 1 2.5-.5 2.8-.9 3.8-2 1 .1zM871.3-14.6l-.1.5-.2 1.9-1.4 2.4-1.5 3.2.1 2.8L872 6l3.4 5.9.6 2.2 2.2 1.7-2.1 2.2-.4 3.2-1.3 1.4-.4 1.8.6 1.7v2.1l.7 2.8-3.3.6-3.9-.1-1.4.2-1.3.8-1.4-.4-3.6-2.7-2-.6-1.4.2-1 1-1.8 1.5-1.7 1 .4.9 7.4 2.4 1.3 3.7-1.4 3-.5 1.5-1.7 1.1-2.1 1-2.6.3-.3 1.6 1 4.7-.8 1-.8 1.5.8 3.9 1.6.3.4.9-.3 1.6-.3 1.7-.6 1.8-.3.8-1 .5-3.3-.3-2.8 1.5-5.7 5.4-2 .9-2.2 2.2.1 4.7-.3.4-.5 1-6.8-1.7h-.2l-4.5.6-3.1 2.2-3.8 1.3-7.9-.7-7.7.8-1.8.6-2 .4-1.9 1.3-1.1 1.8-1.9 2.2-2.7 1.8-2.9 1.4-.7 1.1-1 .7-1.7-.8H783l-1.6-.6-5.4-.6-5.9-1-2.8-1-3.2-.8-3.5-.6-3.1-.1-1.6-.3-7.4-1.7-4.9-.1-6.5-.7-13-3-3.8-1.1-3.6-.3-4.2-.9-3.2-1.5-2.1-2.8-2.2-3.8-4-4.9-.8-2.5 1.2-2.2 1.3-1.6-.1-.7-1-.4-7.1 2.1-6.9 2.7-2.7.1-2.6-.6-3.5-.1-3.3.7-6.7.4-3.9 2-2.5 3.8-1.4 3.1-1.1 1-2.3.4-3.5-.3-2.5-.9-2.5-2.6-3.9-.4-3.6-.1-1-.5.1-1.7-1.4-3.2-2.3-1-6 6.1-1.6.5-4.8-1.7-4.2-2.6-.5-1.9-.7-1.6-3.6-1.5-4.4-1h-1.4l.6-.9.5-1.6-.3-1.2-1-1.3-.6-1.4-.2-1.3-.3-1.1-.2-1-.3-.8 2.9-6.1.6-3.8-2.5-2.2-1.1-.7.9-.5 3.6.4 2.3-1.3 1.2-1.3 3.2 1.2 4.7 2.4 2.2 1.6.9 1.2.5 1-.3 1.8 1.1.7 2.2.3 1.5.5-.5 2.3-.1 1.9 2-.3 2.6-1.5 2-2.6 1.2-2.6.9-6.2.3-.5 1.5.5 6.2-.1 2.9 1.2 4.7.2-.1 1 .8 1.5 2.1 2.2 1 1.4 2.2.3 3.4-.8 1.9-.8.7.6 3-.6 2.7-1.8.7-1.4 2.7-1 3.7-2.2 5.1-1.7 16.6-1.8.6-1.4-.2-3.1.4-.5 2.1.8 3.4.7L711 33l1.7 1.5 1.6.1 2.4-1 3.2-.7 3 1.5.9 1.6-.5.8.1 1.3.9 1.1 2.5 1.8 3.2 1.5 1.6-.1.6-1.5.6-3.6.2-3.8-.7-2.2-1.7-.5-2-.2-1.1-.5.4-1.2 1.6-3.1v-4.2l-3.7-4.8-3.2-4.6v-1.6l1.9-2.8 2.9-2.2L734 2l2.1-.8 2.7-.6 3.8-1.5 1.8-1.5 1.2-1.7 1.8-8.7.4-.4.5-.5 6.7 3 .6-.5 1.1-.5 2.2-2.3.5-1.8v-3.3l.2-3.1.4-1 1 .4 2.9 1.6 2.3 1.8 2.1 4.6 5 1.2 6.3.1 2.3-2.1 2-.5 2.3.6 4.9.7.5-3.7 2.8-3.9 1.3-1.4 3.6.1.9-2.9.9-8.1.7-.9 2.6.2 2.6 1.5.8 1.2 1.4-.1 1.9-.8 1.9-.4 3.3.9 7 3.7 3.6 1.4 2.3-.3h2.1l8.2 5.7 5.8.8h5.2l1.7-1.7 2.2-1.4 2.3.2 2 .7 4 2.5 1.8.6 2.4.4 1.8.5 1.6 4.3 1 1.1zM870.1 151l7.3 5.1 3 .8 1.7-.7 2.3.3 5.2 1.5 1.2.6 1.6-.1 3.8-2 1.3.2 4.3 3.9h2.2l2.6-1.7 1.7-1.4 5 1.1 2.9-.7 2.4-.1 2.6.7 2.3.9 2.3.8 6.2.4 3 2.5 1.2 2.4v1.4l.3 1.5 1.7 1.5 3.7.9 2.3-.2 1.2-.1 3.2-1.4 3.7-.7 2.7.8 1.3.8.3 1.1-.8 3.7-1.5 4-2.4 4.2-2.6 3.9-.7 2.1-.2 3.3-.3 2.6.4 1.4.8 1.3 2.8 1 3.8 2.6 3.2 3.4 4.2 3.8 1.3 1.4v1.5l-1.2 1.1-3.6.4-3.7-.3-1.4-.4-1.3.5-.8.9.4 1 3.8 4.6 4.4 6.7.2 2.9-.5 2.2-1 1.6-1.8-.3-1.4-1.2-2.1.1-1.6.3-2.1 2.4-1.1-.1-1.8.4-1.2.5-1.8-.7-1.9-.5-.8.7-.4 1.4 1.2 2.5 2.2 4-.4 3-1.7.3-1.6-2.5-1.4-.4-1.6.1-3.6 2.9-2.7 2.5-.6 1.7-1 1.9-.3 1.4.1 4.5-4.8.7-1 .7-.6 1.4.4 5.8.4 3.1 2.7 4.8.1 1.5-.4 1-2 1.9-.9.7-.6.2-3.2-1.2-1.5-.6-6.4-4.2-2.8-2.3-4.5-3.1-2.7-1.8-1.4-2.6-2.2-.6-2.6.9-2.9-1.9 2.1-1 .5-1-.3-1.2-.9-1.7-7.9-7.3-3.9-5-.6-1.8-.1-4.8-.9-1.1-5.8-2.2-6.5-6.2-6.7-6.1-.9-1.7-3.4-4.6-4.2-4.2-3.4-2.7-2.7-3.1-3-4.3-1.6-6.5-1.4-5.8-1-2.2-1.9-.8-6-6.9-5.1-4v-4.3l.8-7.3 1-8.3 1.2-1.2 2.3-.6 2.7.2 2.3 1 4.6 5.7 2.6 2.2 2.2.9 2.5-2.4 3.1-5 2.7-2.6 9.2 1 4.9-3.9zm414.1 73.2l-.8 11.3-3.4 5.2-5.2-1.8-6.6 1.5-3.5 6-2 1.8-1.8 2.1-1.2 7.7-.3 12.6-2.5 1.5-2.3.5-9.5 11 5.5 3.1 2.4 2.4 4 6.5 5.7 7.4 1.1 3.6-4.8-.8-1.7.2-1.1 1.1-2.2-.2h-2.8l-2.9 1.3-1.6.5-2.1-1.2-4-3.6-2.4-2.5-1.8-.6-1.8.7-6.4.9-1.5 1.5-3 1.6-3 .8-4.3.5-2.3-.1-1.3.8-1.1 2.3-.7 2.3-.6.9-5.4 1.1-1.2 1.3-.3 1.3.1 1.3-4.3-1.2-3.3.8-.8 1-.7 1.4.4 1.5 1.2 1.5 1.2 3.9.4 3.9-.7 2.2-2.5 1.6-5.1 1.8-4.9-.8-2.2.7-3.6.2-3.4.5-5.1 1.6-4.7 1-4.2-3.3-5-2.2-5.2-1.3-1.8 1-.8.8-4.4-2.9-1.9-1-.9-1.1-1.8-3.9-1.1-.1-3.6 1.4-3.5-.1-2.1-.3-6.2.2-.8 2.6-.8.4-1.3.4-3.3-.2-4.2 2-4.5 1.2h-3.5l-3.6-.6-2.2.4-4.7.2-3 2.8-4.6-.2-3.9-.5.5-.9.8-11.3 1.9-5.1-.1-1-.4-.8-1.7-.8-1.2-2.8-2.6-7.2-1.5-1.5-4-1.5-3.5-2.1-3-2.8-5.5-6.8 2.8-.7.8-1.4 2.8-3.8.3-1.9-.3-1-1.9-1.8-1.3-4 .9-3.7.1-1.9-.9-1.9 1-2.4 2-1.3 1.2-.4 5.2-.3 3.3-4.7 2-1.5 2.1-2.7 1-1 .9-2.1.3-2.1-4.2-3-1.4-2.3-1.9-2.5-2.5-1.7-5-3-2-3-.9-3.9-1.3-3-1.5-1.9-.3-1.6-.6-1.9-.1-3.8 1.2-5.1.8-1.8 1.7-.5 4.6-2.7.2-3.5.8-2.2 1.4-1.2 1.3-.8 2.5 2 6 3.2 2.9 2.3-.2 1.4-1.4 1.4-2.6 1.4-1.5 1.9-.4 2.3.4 1.6 1.8 1.4 10.8-1.9 11 1 14.8 3.1 9.8 1.1 7.2-1.5 13.4 2.6 12.5 2.5 12 .7 6.7-1.9 4.7-2.6 4.1-4.9 10-6.5 9.7-3.6 12.7-2.9 8.5-1 1.2 1 10.8 5.9h4.8l3.9 1.1 1.4 1.6 1 .4 5.2-1.5 2.3 3.2 3.6 4.6 6.1 2.3 5.4 1.3 1.7.2 6.5.3z"/><path fill="#EBEBEB" stroke="#949494" stroke-width=".5" stroke-opacity=".8" d="M607.7 40.1l1.1.7 2.5 2.2-.6 3.8-2.9 6.1-1.5 4.9-.2 3.8.3 1.8h.5l2.8.3h1.4l4.4 1 3.6 1.5.7 1.6.5 1.9 4.2 2.6 4.8 1.7 1.6-.5 6-6.1 2.3 1 1.4 3.2-.1 1.7-1.7 6.5-.3 3.5 1.4 2.3.2 1.8-.4 1.6-2.4.1-3.2-.9-2.7-2.8-2.1.3-1.8.7-.9 2.6-.8 3.1.3 1.7 1.3 1.3 1 2.8.7 3.7.5 1.7-.6.8-1.7.5-1.4-.5-2.5-4.4-1.2-1.7-1.9-.3-3.4 1.1-5.3 2.5h-2.1l-1.8-.5-1.7-2.1-1.4-4.1-.5-2.5-1 .1-3.4-.7-1.6 1v4.1l-.3 5.2-1.7 3.3-4.7 5.7-1.7 2.5-.7 1.8-.1 1.6.7 2.7 1 2.6-.8 1.5-2.5.8-1.8-1.6-.7-2.8-3.8-3.8 1.7-3.2-.3-.8-6.3-1.7-2.7-2.4-3.8-4.2-.7-1.8.2-5.9-.2-1.4-.5-.7-1.8.1-2.6 2.1-2.4 3.1-4.8 3.5-.5.7 1.6 3.4-.1 1.3-3.9 5.4-.7 1.8-5 3.3-2.3 1.3-6.9-2.5-1.9-.3-3.1 1.6-4.4 1.6-7.1 1.6-2.6-1.1-1.2-1.1-.6-1.6-1.8-2.9-2-1.7-1.4-1.8-1.9-2-1.2-1.7 1.6-5.4-1.2-1.9-.6-2.7.3-1.8-.6-.4-6.4-1.1-5.3.3-3.8 1.8-3.1 3-.4.7.2.5 1.5 2.8-2.6 2.9-4 2.3-2.8.2-1.3-.4v-3.1l2.4-1.2 2.1-2 .7-2.9.3-2-2.2-2.4.3-1.5 1.4-2.8.8-2.5 1.1-2.2 4.4-3.6 4.4-3.6.7-3.8.4-4.7.6-1.1 6-2.8 1.5-1.1.8-1.6 4.7-5.2 4.7-5.2.9-1.8.8-1V50l-.6-.7-2.2-.4-.8-1.7 2.4-3 3-1.8h2.9l1.2.8-.1 1 1.3 1.1 2.2.3 2.7-.4 2.7-1.1 1.7-2.6 1-2 4.3-2.3 2.9 1.2 8.1.3 5.9-.6 3.7-1.6h4.6l3.1.9.5-.1.9-.2.8-.8 2.9-.6.4-.7-.1-.7-.5-.4-3.6.4-1.4-.5-.4-1.3 1.2-2.2 2.6-1.8 2.2-.4 1.6.5 3.9 3.3 1 .1.5-.6.8-.3 1.4.7 1.5 2.1.3.3 8.7-.7h2l5.9 3.6 6.5 3zm885.1 544.7l-18.5 12.6-1.2 3.7.8 2.6 2.6 3.1.7.8.9 2.4-4 .7-4 .2-2.2-.3-2.1.1-6.6 6.8-3.5 2.3-4.2 1.4-4.3.8-2.2.1-1.9.8-1.3 1.6v1.5l-.6 1.3-2.3-.3-1-2.5-1.7-1.1-4.2.5-2-.1-6.7-2.3-2-1-1.3-2-3.4-7.2-.6-5.4 3.2 1.4 3-1.7 2.9-2.7 3.4-1.1 2.1.5 2.1.5 3.8-.9 1.6-4.1.5-4.7 6.4 1.3 6.6.7 5.3.2 5.3-.8 16.2-5 4.6-3 2.8-1 4.9-2.5 5.1-1.4-3 3.2z"/><path fill="#EBEBEB" stroke="#949494" stroke-width=".5" stroke-opacity=".8" d="M564.5-355.1l-.8 1.2.4-8.4 3.9-8.9 1.6.2-1.7 2.4-.5 1.7-.7 3.4.3 1.8 8.9.5-1 1.6-9 1-1.4 3.5zm50.8-2.3l.2 1.1 5.2 1.6 2.2 2.5 2.4 3.8.2 5.4-3.1 3.9-2.6 2.5 9.8-.9 1 2.2 1.5 2.4 5.2-1.7 13.2 7.1 8-3.5 2-.2 1.8 5.8-2 5.8-7 6.2 1.6 3.8 2.2.8 6.6-.8 10.5 3.7 2.2-1.2 8.5-8.6 3.4-1.9 11.2-1.3 2-3.4 4.5-3.4 2.9-3.7 7-7 7.2 1.3 4.2 1.4 4.6.7 4.2 7.5 10.7 8.3 9.8-.7 3.5 7.8 1.5 9.6 3 3 2.6 2 8 2 .3.1.3 1.3.5 4.7.7 3.9 4.1 15.6-.1 3.8v1l-1.5 5.3-2.7 4.5-3.5 2.5-1.9 2.8-.4 3.1 4.4 5.4 9.2 7.7 3.7 6.6-1.8 5.4-.5 4 .7 2.5 1.5 2 2.3 1.5.9 2.4-.5 3.2.4 2.2 1.7 1.6-.2.6-.8 2.2-1.1 4-.6 2.9-2.6 4 .8 3.4 2 4 1.6 2 .5 1.9-1 4.5.5 1.2 6.4 3.3 1 1.5.6 3.2 2.3 6.8-1.9 8.6-1.6 4.7-3.7 7.4-.2.7-.4.9-1.1 1.3-1.5.2-2.3-1-1.6-1.2.4-3.2-1-.2-1.3-2-.5-2.1-1.4-.9-5-.9-1.7-.6-1.3.4-1 1.5.6 1.4.9 1.3 2.8 2.1-.3.8-5.9 2-3.7 2.1-3.5 1.2-3.5 2.1-7 2.4-5.1.6-1.1.6-1.9 4.1-1.3.9-1.2-.4-.9-.7-1.2.5-1 1.3-1.3.5h-1.1l-2 3.6-5.8 1.1-.8 1.8-1.1 2.1-.9.5-2.6-.8-3.7-.5-2.1 1.2-2.5.6-3.1.2-3.4 2.3-3.3 4.1-1.9 3.6-1 1.3-1.6-3.4-2-2.3-1.4-1.2h-1.3l-.3.5v1.8l1.4 2.9 1.7 2 .3 1.5.9 2.7 2.4 2.9 3.8 2.3 2.6 2.3 1.9 3.2v1l-.5 1.3-.9 1.2-.8 1.6-2.1 3.2.6 1.4 1.7 1.8 1.5 2.1 2 3.4 2.7 6 1.7 2.4 2.4 2.5 2.3 1.9 3.7-.1 3.8 3.7 4.1 5.3 3.1 2.4 2.2.7 1.8 1.9 1.6 2.7.6 1.6 1.4 1.1 3.8-.2 4.9 4.3 3 3.1 1.6 2.5-.4 1-.2 3.1v3.3l-.4 2-2.2 2.3-1.1.5-.6.5-6.7-3-.5.5-.4.4-1.8 8.7-1.2 1.7-1.8 1.5-3.8 1.5-2.7.6-2.2.8-6.6 3.7-2.9 2.2-1.9 2.8v1.6l3.2 4.6 3.7 4.8v4.2l-1.6 3.1-.4 1.2 1.1.5 2 .2 1.7.5.7 2.2-.2 3.8-.6 3.6-.6 1.5-1.6.1-3.2-1.5-2.5-1.8-.9-1.1v-1.3l.5-.8-.9-1.6-3-1.5-3.2.7-2.4 1-1.6-.1-1.7-1.5-2.6-1.1-3.4-.7-2.1-.8-.4.5.2 3.2-.6 1.4-16.6 1.8-5.1 1.7-3.7 2.2-2.7 1-.7 1.3-2.7 1.8-3 .6-.7-.6-2 .8-3.3.8-2.2-.3-1-1.4-2.1-2.2-.8-1.5.1-1-4.7-.2-2.9-1.2-6.2.3-1.5-.5-.3.5-.9 6.3-1.2 2.5-2 2.6-2.6 1.5-2 .3.1-1.9.5-2.3-1.5-.5-2.2-.3-1.1-.7.3-1.8-.5-1-.9-1.2-2.2-1.6-4.7-2.4-3.2-1.2-1.2 1.3-2.3 1.3-3.6-.4-.9.5-6.2-3.8-5.9-3.6h-2l-8.7.7-.3-.3-1.5-2.1-1.3-.7-.8.3-.5.6-.9-.1-3.9-3.3-1.6-.5-2.2.5-2.6 1.8-1.2 2.2.4 1.3 1.4.5 3.6-.4.5.4.1.7-.4.7-2.9.6-.8.8-.8.2-.5.1-3.1-.9h-4.6l-3.7 1.5-5.9.6-8.1-.3-2.9-1.2-1.8-.7-1.3-3.4.3-5 1.9-6.7.5-4.9-.9-3.1 1.2-4.7 3.2-6.3 2.1-6.7 1-7 1.5-4.6 3-3.2 7.1-9 .6-.7-.2-4.5-1.9-.6-2.8-1.3-7.2-1.6-6.7-1-3-1.3-2.7-3.4H533l-3.2 1.2-4 .8-2.9-.7-1.8.1-1 .6-.5-.6-.7-2.9-1.5-.8-2.4-.7-1.5.3-1 1.5-1.6 1-1.4-.3-4.5-6.8-1.2-1.5-.3-1.4-1.1-2.5-2.7-2.5-2.7-.8-1.3.3.1-3.1 1-4.6 1-2.4 1.3-1.9 1.4-1.4.3-2.5-.2-2.3-1.6-.4-4.1-1.7-2.4-1.8-1.8-2.3-2.4-3.1-1-3.2v-3.2l.3-1.4.2-1 1.9-5 6.7-4.5-.7-4.5-.1-2.8-1.6-1.8-3.3-.7-.9-1.3-.4-1.2 2.4-2.8-2.9-2.2-1.3-2.2-4-2.8-.4-1 1.9-8.3-1.5-2.4-1.8-1.2-2.1-.6-1-1.2-.3-1.3.4-.8 2.5.2.8-.9 6-4.9.3-.9-.8-.5-1.1-.3-.3-1v-1.4l3.2-7.1.9-3 .2-2.2-.2-2.1-1.8-3.3-1.8-2.7-.1-2.1-1.3-1.1-3.7-5.7v-2.2l2.1-1.7 2.9-1.1 1-.9 1.7-.6 4.6 1.7 2.1 1.4.6-.3 1.9-1.6 3.3.2 8-3.1 1.2-1.5.9-1.6.1-.7-3.1-3.1-.1-1.1.4-1.3.9-1 1.8-.7 1.9-1.4 4.3-3.9 1.5-3.4.5-3.6.1-2.7-1.2-2.2-1.2-1.4-1.6.2-3.2-.1-3-1.2-1.6-2-.4-1.7.7-1.1.2-1.3-.5-1.4.2-1.1 1.3-.9h9.4l.7-1 .6-5.3 2.3-8 2.2-4.5.4-1.9v-10.6l.3-5.4-1.6-2.5-3.5-2.8.7-5.8 1.2-4.5 3.5-5.6 2.8-1.5 12.2-.9 13.5.4 5.6 8.5-2.1 4.3 3.3 2 1.6-.7 1.2-3.8.8-4.2 1.2-1.3 4.2 3.1 1.5 2.1.1 6.9 1.5-9.3-1.2-6.5.8-6.4 1.7-3.3 1.5-2.1 9.9 2.3 10.9-1.2 4.1 2.5 9.3 12.2 3.1 2 3.9.6-5.4-2.6-11.3-14.9-3.4-1.9-5.2-.6-3.2-1.5-2-2.3-.6-2 .1-15.1-1.9-2.3-2.5-.8-1.6 1h-3.2l-.7-3.4.8-2.6 6.5-1.8 4.3-2.3.2-4.1-2.7-3.3-3.2-6-3.8-5.7-.4-6.6 6.6.1 1.6.3 10 3.1 2.5 2.2 3.1.1 5.6-2 4.2-.9 1.6 1.3 2.3.5-.5-.2zm-40.8 6.6l-1.4 1.4-3.4-.2-1.9-1.4.6-1.4 1.8-1.1 1.5-.2 2.2.7.6 2.2zm181.7 19.4l.9 3.9-.9 2-4-3.3h-4l-2.4 5.1-1.8.2-6.2-4.7-1-2.3-.2-1.9.9-6.6-.2-2.1 1.9-2.3.3-3.3 3.4-3.5 3.1-.1 1 2.9 1.5 2 5.1 2.3.8 1 .5 1.4-2.4 2.8-.8 1.4.8 2.3 3.7 2.8zm-86.1-2l-5.5.1-2.1-2.3-2.1-.6 1.1-2.9 1.5-1.1 5.3 1.9 1.7 3.7.1 1.2zM774-306.2l-.5 1.8.5 2.8-1.5-.2-4.4.7-4.3-.9-.8-3.5.7-3.3-1.7-2.3-1.6-1.4-.2-1.9.3-2 7.5 5.4 6 4.8zM574.1 528.2l.7 2.3.1 2.1-3.4 2-2.2 1.1-2.7 5.4-4.9 3.7-.8 1.1v1l3.3 1.7 1.1 1.6.5 2.1-1.5 7.6-.9 5.8-1.2 7.6v2.9l1.3 3.5 1.3 2.7.4 3-.4 7.5 1.5 4.3 1.2 4-2.9 5-1.3 4.4-.8 6.2-.3 3.9-1.9 3.6-2.5 3.4-2.8 2.1-3.4 1.8-3.9 2.4-3.2 6.4-6.9 5.3-1.4 1.8-.6 4.3.2 5.9 1.2 4.7 3.3 6.9 2.9 7.6.8 3.8 1.1 1.4 4.1 2.5 7 3.4 1.3 1.4 3.5 5.2 3.3 9.3 1 6.2 6.5 4.9 6 4.5 5.7 4 6.2 4.3.9 1.3 2.1 9.1 2.1 9 2.2 9.9 2.3 9.9 2.7 11.6 1.5 6.6 1.8 7.9 2.2 9.3-3.5 2-3.9 2.5 2.9 4.8 5.5 7.7 3.3 6.2 1.2 2.7 2.6 7.7 2.1 7.5.5 2.4.8 5.7-1 15.8 1.5 19.9 2 9.9-3.2 8.9-2.8 8.5.2 4.3 1.5 6.7 1.5 4.9 2 2.6-.4 8.3-.8 3-6.2 4.3-6.9 4-1.9 3.3-.5 3.7.9 3 4.7 6.7 7.1 10 7.8 11 .6 2.8.3 7.8 3.2 9.8 3.5 4.3 1.3 3.2 2.5 2.3 2.5 1.7 1.5.2 8.8-2.7 15 4.4 14.2 4.5 1 .9 3.1 5.6 5.1 9.2 3.8 7.3 3.4 6.6L676 1069l-18.4 11.3-18.4 11.2-18.4 11.2-18.4 11.2-18.4 11.2-18.4 11.1-18.4 11.1-12.2 7.4-7.8 6.5-9.7 8.1-9.2 8.1-7.2 6.3-9.4 8.2-4.7 4.1-10.4 9.1-3.1 1.6-13.8 2.7-12.7 2.5-11.7 2.3-8 1.6-7.8 1.5-11.3 2.1-8 1.5-8.7 1.6-1.4.3-1.6.1-1.2-.1-2.4-.9-2.9-2.1-1.9-1.1-.5-1.7 1.1-2.2 1.4-2 .5-1.6 1-1.2 1.2-1v-1.4l-1-2.3-.9-3.1V1193.9l-2.6-2.2-4.9-2.4-4.5-1.4-2-.5-5-.9-6.9-1.5-2.4-1-4.5-5.3-2.2-1.3-10.3-.9-3.4-.9-2.8-1.3-2.4-1.7-1.4-2.9-.4-2.4-.9-1.1-11.4-5.7-2.9-1.9-1.5-1.8v-2.7l.3-3.3-.5-2.9-.5-1.4-5.2-3.5-11.6-7.8-11.6-7.8-11.6-7.8-11.6-7.8-11.6-7.8-11.6-7.9-11.6-7.9-11.6-7.9-11.6-7.9-11.6-7.9-11.6-7.9-11.6-7.9-11.6-7.9-11.6-8-11.6-8-11.6-8-9.8-6.8-10.8-7.2-8.1-5.2-8-5.2-8.6-5.6-5.6-3.5-6.7-4.2-6.7-4.2-6.7-4.2-6.7-4.2-6.7-4.2-6.7-4.2-6.7-4.2-6.7-4.2-6.7-4.2-6.7-4.2-6.7-4.2-6.7-4.2-6.7-4.2-6.7-4.2-6.7-4.2-6.7-4.2v-51.3l.2-2.7.7-1.1 3.6-1.9 5.6-4.4 2.1-1.9 2.7-2 9.4-5.9 2-1.7 9.2-6.8 2.2-1 4.9-.7 2.1-1.3 2.8-2.7 4.1-3.1 2.6-1.5.6-.3 1.7-.2 8.5.9 3.6.7 4.3.6 1.3-.4 1.1-1 1.6-2.2.3-2.6.1-2.3.2-1 .7-.5 1.9.2 2.5.3 5.1-.1 1.7-.3 5.8-.5 8.1-1.5 6.4-1.9 5.1-1.5 5.5-4 4-4.2 4.2-6.3 3.3-5.5 6.7-3.4 5.6-2.1 3.2-.8 7.3-2.9 6.2-4.4 5.8-4.1 4.4-.5 5.6-.7 1.3-.8 1.4-1.5.1-2.6-1.7-1.8-2.1-.9-1.5-1-1.4-.2-.8-1.2.4-2.3.2-2.1.9-2.1-.3-3-1.4-3-.4-2.2.1-2.1.7-1.7 2.1-1.1 2.4-.4 3.4.5 5.9-.7 15-5.2 1-1.6 1-3.6 1.1-3.2 1.6-1.1.8-.2 5-.9 7.1-1.2 2.7-.2 7.7.3 5.6.3 9.1.4 6.4.2 5.6.2 7.2.2 1.8-.7v-2.3l-1.3-4.3.8-2.7 2.8-2.5 3.4-2.8-1.6-3.4-2.7-2.3-3.8-2.7-2-1.1-3.5-3.3-2.1-3.8-1.4-7.9-2.6-4.5-1.9-5.5 1.7-10.1-2.6-6.1-.4-2.7V656l.8-5.4-.5-7.6-3-7.9 1.4-2.7.7-1.4-.2-1.2-2.7-2.5-1.2-2.1.6-1.9 1.4-2.8-.1-1.2-4.4-3.5-7.5-5.6-2.1-2.5-1-3.1 7.2.8 3.7-.4 8.5-3.7 6.8-5 5.2-2.5 4.6-5.5 4.2-3.5 6-3.7 17.4-8.1 2.7-.1 5.7 1.8 5-.6 3.4-2.8 3.7-6.8 5.7-4.2 7.2-4.2 9.8-4 6.4-3.7 10.1-3.2 25.5-2 13.1-1.8 8.9.4 9-5.9 4.5-1.9 19.4-.5 9.2-4.3h34.8l4.2 1.4 4.2 2.3 7.1 5.6 3.5 1.2 4.6-1.2 10.7-5.3 12-2.7 6.5-3.1 2.8-4.6 5.6-1.7 3.2 3.5 12.5 3.6 7.7-1 3.4-1.1-1.2-5.3 8.1 1.4 6.2 2.5 6.5 5.1 4.2 1 7.7-2.3 16.4-.3zM206 240l.1 1.6 1.4 2.2 1.4.8 3 1.1 2.3.2 3.2.5 2.2 1.3.1 2-.5 2.2-1.3 2.1-.7 1.6.7.9 1.1.7 1.2.2.8-.2.6-1.2 1.2-1.5.7-.2-.1.9.6 1.1 3.9 1.8 8.6 3.3 3.4.1 2.7.4.8 1.4 5.5 5.1 1.3-.1 2.4.1 2.9-.4 2.1-1 1.4.2 1.5 1 1.8.9 2.3 1.7 2.1 2.1 1.4.7 8.6-1.4 1.9 1.2h2l2.3-.3 5 .6 4-.2.4-.5.3-4.6.6-1.6 1-.4 2.4.3 8.7 2.7 3.6 1.7 3.5 1.3 3 .1 2 .9 2.8 4.4-.5 2.2.3.8.3 1.5-.1 1.7.7 1.1 1.3.1 1.7-.3 1.9-.7 3.3-1.9 1-.3 5.5 2.1 2.4 1.4.8 1.5 1.3 1.6 1.6.2 2.3-1.5 3.6-1.6 6.2 1.4 6.9 2 3 .2.1-1 .5-1.4 1.1-.7 1.7-.2 2.4-.8 2.7-1.2 2.8-.5 2.9.9 3.5.8h2.1l1 2.9 1.7 1.1.7 2.5-3.1 1.3-1.8.2-.6 4.3.9 1.2 1.8 1.1.5 1.3.4 6.3-3.6 3.8-5 4.3-24.6 13.7-5.9 6.6-2.2 1.5-18.3 4.1-12.8 4.4-6.1 1.6-7.7 7.7-3.6 3.1 2.9.9 3.4 3.7-1.1 1.6-4.9 2.5-2.1.8-1.2-.4-1.1.3-8.2 13.2-7.3 9.5-4.1 4.1-4.2 6.1-8.9 15.7-.4 4.8 4.4 15.6 2.5 4.1 3.5 3.4 6.7 2.9 1.7 2.9-2.3 2.7-6.7 4.8-11.7 6.5-5 5.1-1.1 4.9-3.4 2.2-1.3 6.9-2.1 4.6-.4 1.5-2.2 3.5-.3 2.5 3.6 3.5-1.8 1.5-1.8.7-4.1.4-13.8.4-11.1 7.5-5.6 6.6-5 12.2-6.1 7.2-2.7 1.3-4.2-3.2-5.2-.5-5.1 1-2.7 2.5-4.1 1.4-4.1-1.2-8.8-.7-3.9.1-6.1 2-5.2-1.3-8.8-.7-19.1 1.6-2.4.8-2.4 3-6.1 5.2-9.3.2-8.4 3.3-2.1 2.1-3.5 5.8-1.1 4.2h-.7l-.9-1-1.3.3-.7 3.2-3.2 1.5-2.6.5-6.5-2.6L58 560l-2.8-.3-4.6-6.1-2-3.9-1.4-4.2.3-1.6-.4-1.3-4.1-1.7-1-3.9 3-5.1 2.4-2.2 1.5-.6-3.7.2-2.7 3.3-3.4-5.2-13.9-10.2.9-2.3-.2-1.3-2.3 2.7-1.6.7-7.1-.4-8 1.4-2.2-10.6-1-4.1-.3-2.6 2.1-6.1 2.3-2.5 3.1-5.2 3.8-4.3 4-1 1.8-.6 1.5-3.3.8-2.8-.6-.3-4.7.6-8.4-12 .3-1.9 1.1-2.8.7-3.6.2-2.8 2.2-2.4 3.4-2.5 2.8-3.5 1.4-3.4.3-3.1-1.6-2.2-4.6-1.2-4.7-8.9-1.1-5.6-1-.6-2.9-2.5-2.8-5.2-.4-.8 2.9-.8h11.9l2.5-1.1.4-.4 2.2-3.7 2.3-6.1.5-3.8-.7-1.6-4-3.8-.2-1.1.6-1.8 2.4-1.9 3.2-2.2 1.7-1.9-.4-1.5-.9-1.5-.1-1.4.6-1.8.2-6.1.4-1.6-.6-5.5-.8-4.5-2.5-5.9.5-1.3 1.2-1.1 3.8-2 3-4.8 4.4-4 5.8-3.2 4-3.6 1.6-2.8 1.1-.7-.3-1.3-.8-1.9-2.3-1.8-3-1h-3.3l-2-.4-.6-1.4.2-3.9-.3-4-.6-1.8-1.5-1.3-3 .4-2.6-1.1-2-.3-1.1.9-5.9-.3-2.4-.6-1.7-.8-1.1.4-.6.8-.1 1.2-.4 1.6-2.1 1.4-4.9 1.3-3.9-.1-3.6-1-1.1-.7-1.7-.7-7.2.8-.9-.6-2.5 1.4-3.7 1.7-2.1.1-.7-.4-.3-.8-1.5-2.7.4-1.4 3-4.2-.3-1-1.2-1.4-1.1-1.9-.3-1-1.9-.2-2 1-7.7 2.1-1.8.8-3.3 2-3.3 3.1-2.7.6-.9-.9-.3-7.2 4.1-4.8 2.9-2.9-1.4-.6-3.1.1.2-2.3 1.4-1.1 1.4-2.5-1.6-1.1-1.3-1.6.1-4.3.4-1.7-.4-1.9-6.3 2.5-1.6-.4-.1-3.2 3.5-4.8.4-1.5-4.1-.7-3-2.4-1.8-2.1-2-3v-2.8l2-6.4 2.9-1.9 2.5-1.2 5.3-4.5 7.4.8 4.6-1 4.1-2.3 2.4-.5 3.8-2-.1-2.7-1.3-2 1.1-1.9 4.2-2.3 4.7-3.1 5.4-.6 5.5-2.7 3.7 1.8 3.2-.6 3.7 2.1 4.9 4.8 7.1 1.9 5.7-1.5L35 231l5 .6 8.9-1.2 5.1.4 8.3-2.4 6.4 2.9 12.4 1.4 7.5 2.4 20.7 4 7.5.1 10.6-2.3 4.5-1.7 4.1 1 6-2 2.9.4 3.8 2.8 13.2 3.8 3.5-3.2 2.6-.7 9.5 1.9 9.6 4 5 .3 7.3-1.1 5.8-2.6.8.2zm216.1 162.2l-.6.5-10.9-5.1-3.6-.6-.9-.8.1-2.7.3-1.2 7.3-.5 5.9 1.9 3.2 5.1.2.9-1 2.5zm-40.8 2.3l3.4 1.5 3.6-1.3 1.9.4 1.9.7.5 2.8-1.7 3.1-2.3 3.2-2 3.5-1.7 4-3.2 2.3-2.9 1.4-6.1-3-3.6-.7-1.1-1.1-.8-4.4-1.6-1.4-2.4-.6-2.1 1.1-2.7 2.3-1.4-2.3-2.3-.4-.9-1.4v-1.8l14.7-10.7 4.2-2.4 9-2.8 1.4.4-1.2 1.6.1.7 1.1.8-.3 1.3-1.1 1.1-.4 2.1zM321 442.8l-1.3 2.7-5.4-.9-1.2-1.1 1.2-3 1.6-.4.1-2.2 1.6-2.2 7.7-1.8 1.7 1.5.4 2.1-4.6 4.6-1.8.7zm5.2 10.8l-.8.6-2.4-.5h-3.5l-.1-1.8.5-1.2.7-1.3 2.1 2.5 3.4.5.1 1.2zm-543.3 399.9l-2.4 2.6-2.7-.9 1.3-5.6 1.2-1.7 4.9-2.4 4.1-1 1.2-2.6 1.3-1 1.4 1.5-1.1 1.8-.9 5.6-2.7 1.8-5.6 1.9zm-146.2 16.2l-.9.3-.8-3.1-4.2-7.5 2.6-3.3 4.7-.1 1.9 2.3.6 2.4-.9 1.4.3 2.8-.5 1.8-2.8 3zm129.1 12.5l-4.8 4.4-4.8-1-.8-.7 4.8-1.1 4.4-3.3 2.8-7.4 4.4-8.1.9-3.5 1.7-1.3 2.4-.1 1 .3 1.1 1.8v4.1l-1.3 6.8-2.3 6-9.5 3.1zm-75.8-8.1l-3 8.8-2.8 3.4-1.6 1.2-4.1 1-4.9-5.5-2.5-5.6-1.4-1.8 2.2-1.4 3.2.2 6.9-1.2 1.4-.5 7-5.6 6.9-.7.2 1.8-7.5 5.9zm-30.2 13.8l-1.5.3-1.7-1-1.8-3.1 1.2-2.3 1.1-1 1.6.2 3 1.7.9 1.7.1 1.1-2.9 2.4zm63.3-4.9l-.2 3 .8 3-.2 4.5-1.7 2.5-4.4 2.4-3.4-.4-1.9-1-3.4-4-.1-4.1 3.1-2.7 1.4-3.5 8.2.7.7-.7.6-.2.5.5zm-88.3 13l-3.4 6.3-4.3-2.3-1-.8-.9-1.3 4.2-.3 4.2-3.2 1.2 1.6z"/><path fill="#EBEBEB" stroke="#949494" stroke-width=".5" stroke-opacity=".8" d="M371.3-125.9l2.1-.6 3.6-2.1 3-.7 1.7 1.6 1 .9 1.9 3.7.5 3.8.8 3.2 1.5 1.3 5.7.4 4.2 1.2 1.1 1.1 1.4 7.1.8 1 1-.8 1-1.2 1.4-.2 2.5.4 3.2.1 3.4.8 4.6 4-.2 1.3-.9 2.3-.3 1.8.8.7 1.2 1.9-.3 2.2-1 1.7-.5 1.3v.8l.4.7.9.6 6.8.8 6.3-.8 3.9-2.2.7-2.4 1.1-2.7 2.4-2.2 1.6-.8 1.5.9-2.5 9.4 1.8 2.4.3 3.6.7 3.1 2.2-.1 2.7.6 1.9 1.1 2.2 1.8 3.2 1.7 2.3.6.8 1.4 1.8 1.6 2.9 3.4 2.6 2.3h1.3l2.4-.9 3.6-.6h2.8l1.2 1.7 2.8.8 1 .6 1.1 1.2 1.8.5 2.2-.5 1.6-1.6 2.2-.7 2.2.2 1.2.9 2.4 1.3 1.3-.3 2.7.8 2.7 2.5 1.1 2.5.4 1.7 1.2 1.5 4.5 6.8 1.4.3 1.6-1 1-1.5 1.5-.3 2.4.7 1.5.8.7 2.9.5.6 1-.6 1.8-.1 2.9.7 4-.8 3.2-1.2h1.6l2.7 3.4 3 1.3 6.7 1 7.2 1.6 2.8 1.3 1.9.6.2 4.5-.6.7-7.1 9-3 3.2-1.5 4.6-1 7-2.1 6.7-3 6.4-1.2 4.7.9 3.1-.5 4.9-1.9 6.7-.3 5 1.3 3.4 1.8.7-4.3 2.3-1 2-1.7 2.6-2.7 1.1-2.7.4-2.2-.3-1.3-1.1.1-1-1.2-.8h-2.9l-3 1.8-2.4 3 .7 1.7 2.2.4.6.7v.8l-.8 1-.9 1.8-4.7 5.2-4.7 5.2-.8 1.6-1.5 1.1-6 2.8-.6 1.1-.3 4.7-.7 3.8-4.4 3.6-4.4 3.6-1.1 2.2-.8 2.5-1.4 2.8-.3 1.5 2.2 2.4-.3 2-.7 2.9-2.1 2-2.4 1.2v3.1l1.3.4 2.8-.2 4-2.3 2.6-2.9-1.5-2.8-.2-.5.4-.7 3.1-3 3.8-1.8 5.3-.3 6.4 1.1.6.4-.3 1.8.6 2.7 1.1 1.9-1.6 5.4 1.2 1.7 1.9 2 1.4 1.8 2 1.7 1.8 2.9.6 1.6-2.9 2.8-4.8 2.6-.5 1.7.1 1.9.5 1.5 2.7 1.9 2.9 4.4 1.8 3.9 4 3.7 1 1.1-.3.9-1 1.6-1.4 5.3-1.6.8-1.8.3-4.9 3.9-2.2-.5-3.1.1-2.3 1.3.3 2.4 2 2.2 1.2 2.4.5 2.5 2.2 1.8 3.1 1.1 1.8.1 1.2.7.7.9 1.4 5.3-.8 1.3-1.7.6-1 2.2-2 3.2-1.1 2.6 1.3 2.3.5 1.7-.7 1.7.9 2.7 2.4 2.7 6.5 3.7 6 3 1.9.5 8.1-1.9 1.3.2 1 2.3.4 1.6-.9 2.3-2.2 3.3-2.4 2.6-1.4 2.2.3 2 .1 2.6-1.9.8-.1-.5-.8-.4-.7.3-.5.6-.1 1-4.1 1.7-2.8 1.7-11.2 10.4-5.3 3-1 1.8-1.1 3.4-3.1 2.9-2.7 1.4-6.7 1.4-6.7 3.1-3-1.3-7.8.1-4.9-3.7-9.4-2.4-3.1-5.4-4.3-.4-2.8.2-1.7-.8-.4-1.9v-1.8l-3 .8H444l-1.4.7-1.1.8-1.3-.5-.7.2.1 1-2.7.3-3-.6-7.8-2.8-1.2-.4-5.4-1.1-2.2-1.1-1.8-2.8-1.3-.9-.8-.5-5 1.4-1.7 2.2-2.7 2.6-18.7 12.3-3.4 5.2-3.9 7.7-.3 3.6 1.7 11.4 3.8 6 .5 1.4h-2.1l-3.5-.8-2.9-.9-2.8.5-2.7 1.2-2.4.8-1.7.2-1.1.7-.5 1.4-.1 1-3-.2-6.9-2-6.2-1.4-3.6 1.6-2.3 1.5-1.6-.2-1.3-1.6-.8-1.5-2.4-1.4-5.5-2.1.3-1 .9-1.4v-.9l-1-1.3-5-1.4-2.4-.4-1.5 1-1.1 1.2-2.8-4.4-2-.9-3-.1-3.5-1.3-3.6-1.7-8.7-2.7-2.4-.3-1 .4-.6 1.6-.3 4.6-.4.5-4 .2-5-.6-2.3.3h-2l-1.9-1.2-8.6 1.4-1.4-.7-2.1-2.1-2.3-1.7-1.8-.9-1.5-1-1.4-.2-2.1 1-2.9.4-2.4-.1-1.3.1-5.5-5.1-.8-1.4-2.7-.4-3.4-.1-8.8-3.5-3.9-1.8-.6-1.1.1-.9-.7.2-1.2 1.5-.6 1.2-.8.2-1.2-.2-1.1-.7-.7-.9.7-1.6 1.3-2.1.5-2.2-.1-2-2.2-1.3-3.2-.5-2.3-.2-3-1.1-1.4-.8-1.4-2.2-.2-1.5 5.8-1.4 5.2-5.9 4.9-21.5 3.6-25.6 2.6-4.9 3.3-1.3-2.7-3.6-1.7 1.8-.7 1.9-.9 1 2-23.8 1.4-8.8 2.4-9.2 4.9 3.6 4.1 3.7 2.1 3.2 2.7 10.7 2 2.2 3 2.2-1.2-2.4-2.1-1.9-3.3-14.2-2-4.1-3.2-3.4-10.3-7.2-.9-1.4-.5-2.7 3.4.1 2.9 1.3-.3-1.5-.9-1.6-1.4-5.8-1.1-13.7.2-2.3-.5-2.9-3.3-.6-2.6-.1-2.8-1.1-14-8.1-4.8-8.4-4.9-6.2-1.2-2.7.1-2.8 2.5-5.8-2.2-3.7-2.2-.7-1.9-1.8 1.7-3.1 1.4-2 2.9-.5 3.8.6 3.6 1.8 2.8.5-8.3-4.8-13.4 1.6-2.9-.6-2.4-1.1-1-3.5 1.9-1.6 1.7-2.9-1.9-2-2.5-.8h-4l-3.7.6-.9-1.2 2.3-3.3-1.9-1.2-2.6.6-3.7.7-3.6-1-3.4-3.7h-2.2l-1.5.5-2.3-1.4-2.4-.4-1.7.5-2.3-2.1-14-4.3-6-.5-5.5 1.9-3-.7-2.2-2.8-1.9-4.6-8.9-3.6 1.8-2.4 4.2-.6 4.8-1.6 1.7-2.1-3.7-2.5-2.8-.6-1.1-.9-1.2-2.2 1.6-1 1.2.5 3.4.3 5.7-.5-2.1-2.2-2.2-.5-1-.6-4.7-.2-2.1.8-4.8-.3-1-2.4-.5-2.1 1.5-4.6 6.7-4.1 16.8-4.5 7.2.7 5-.8 6-2.8 2.6-2.4L155-27l8.1 2.6 7.5 9.8 3.6 3.3 8.7-5.7 13 .2 2.7 3.2 1.1-2.7 2.4-3.2L204-18l1 2 13.7-.6 2.2-.6-3.7-2.3-3-5.6-.6-20.6-3.8-5.8-4.4-9.3-2-5.5-.2-1.9.7-2.8 5.4.1 4.1.7 7.9-2.1 3.8 1.4-.2 4.3 1.2 5.4 1.3 2.6 2 3 6.4-.3 6.9 1.8 8.7.3 12.7 3 5.4-1.8 5.2-3.7 10-2.5.8-1.3-5.7.5-5.3-2.4-.7-2.6.6-2.3 2.1-5.3 15.2-8.4 10.9-2.5 11.4-4.7 5.7-4.8 3.8-6.2 1.2-1.4 1.6-1.1-1.5-2.2 1-23.8 1.1-4.3 2.2-3.5 3.4-2.7 5.1-3 18.9-4.1 2.8-1.7.4 2.6 1.4 3.3.9 1.8-.8 2.3.6 1.9 2.6 3.5 3.2 3.3 2.9 2.1.8-.1zM227.9 120.5l-1.3 4.3-2.4-3.9-3.1-3.5-.7-3.2v-.9l3.7 2.3 3.8 4.9zM606.1 268l-.9 6.8.7 2 1.3 1.4.6 1.5 1.1 18-.2 1.4-4.3 7.2-1 2.1-.2 8.9-.7 2.4-1.5 2.3-2.7 7.6-2.4 3.4-6.5-4.2-3.8-1.8-1.9-1.9-1.2-1.3.8-1.8 1.7-1.9.3-1.5-4.1-1.7-1.9-1.1v-1.9l1.4-3-.6-2.5-2.4.1-1.8-.4-.2-1.3 1.3-1.7 1.7-2.2v-2.4l-2.1-1-1.9-2-.8-2.7 1.5-1.8 2.4-1.2-1.8-2.7-1.2-.1-.9-.6.8-1.3 1.9-1.9 2.6-5.7 3.6-2.7 6.4-1.7 1.7-.8 1.6-2 1.8-1.3 2.1.2 2 .8 1.2.8.9-.9.9-2.5-.5-2.2.3-6 1.1-3.4 1.8-.2 1.7 1.9-.1 1.7.6 3.9-.2 2.9zm1311.4 42.1l-.9 1.6-2 3-1.6 1.5-1.8.2-1.8.7-.6 1.6-.1 2 .3 1.5.5.5 1.8.5 1.8 4.3 2.8 2.2 4.4 2.5 3.9 2.8 1.9 2.6-.4 1.9-1.3 3.9-3.3 3.2-2.7.8-1-.3-1.8-1-3.6-2.5-3.9-2-3 .6-2 .7-3.9-.9-4.6-1.7-2.4-1.7-1.1-1.2.7-2.2-10.4-4-5-1.1-2.3 1.2-7.7 6-.9.6-5.8.8v.5l1.3 1.3-.3.4-9.8.1-3.3.8-8.7-1-2.9.5-2.5.9-6 1.1-4.1 1.3-5.3.7-5.4.1-1.9.4.1-.9-.3-1.3-1.1-1-1.5-.6-2.8.2-2.6-.6-1.9-1.7-.4-1.3 1.1-1-.8-.9-3.3-2.1-5.3-5.2-3-1.2-1.2-3.2-1.2-.7-2.5-.3-2.7.3-.6.4-.8.5-2.1 4-1.5 1.4-3.6-.6-3-1-2.4-.5-4.7-.3-5.4-.1-3.6 2.9-1.6-.4-2.8-1.4-4.4-1.2-2.4-.9 6.8-8.5 2-5.1.1-3.1.1-3.9-3.5-8.1-3-11.5-3.2-12.1-2.5-3.6-10.3-4.2-2.4-4.8-8-6.2-11.1-2.7-2.2-1.1-9.6-7.8-7.5-5 1.6-3 2.2-3.2 2.3-.8 6.8 1.3 6.3 1.4 4.6-1 5.4 2.5 5 2.9 5 2 9.8 1.9 3.6 2.7 4.2 2.7 16.7 1.4 1.3-.4 1.2-.4 5.6-1 4.9.2 5.2 3.2 3.3-.2 3.6-.5 4.6 1.7 3.6 1.9.3 1.9 3.2 2.8 9.2 4.3 7.4 2.4 2.3 1.7 5.7 2.8.6.9-.1 1.2-1.6 2.1-.4 1.9.8 1.1 2.3 1 4.7.2 1.7-1.3 3.5-1 3.5-1.7 4.6-2.3 6.3-2.1h2.5l2.4.6 1.7 1.2 2.8 4.3 2.8-6 .7-.5 2.6 1.2 4.5 1.7 3.2.9 1.7 1.2 4.8 5.5 7.8-.3 3.3.8 1.8.9.8 1.1-1.4 5.4-1.9 5.6.2 1.4 3.1 2.1 4.2 2.2 2.3 1.8 1.6 1.6 3.3 1.2 4 .8 1.9.1 2 1.4 5.1 2.5.7.8zM80.4 561l-.1.6.1.4-.1 1.1h-.2l-.4-.6v-.8l.4-.2-.3-.5h.6zm1123.4-243l3.2.9 1.8 1.5 1.2 1.4 1.8 1.2 1.3.3 1 4 .5 5-.8 2.2-2.3.5-7.3 4.7-.2 4.3.1 2.1.2 1.5.8 1.2v1.8l-.8 1.9-3.2 3.2-2.2 2.5-2.5 3.5-1.4.4-1.1.6-1-1.9-5.5-3.4-12.7-2-6.1-2.5-2.7.5-5.2-2.8-3.5 1.2-7.5 5-4.1-.5-4.3-3-2.8-.5-3.3 1.6-5.3 5.7-5.4 2.8-4.8-1.1h-6.5l-.7 3.2 1.3 2.2 3.6 3.7-1.7 2.8 1.2 2.8 2.3.6 3.5-.2 6.5 3.6 2.8 3.8 1.8 4.2-3.9-3-2.6-2.9-3.7-1-5.1-2.5-3.2-.4-3.4 1.7-.3 1.9 3.7 3.6 3.3 2.2 1.8 1.8 1.2 4-.7 1.4-1.2 1.3-4-2.5-6.1-9-8.4-1.8-1.4 1.9 1.7 4.7 1.2 1.8 7.3 5.1-.6 1.1-1.1.5-8.2-2.9-2.4-4.4-.6-5.6-7.6-3.9-7.2-4.3-1.6-4 1.5-1.5 1.1-3-3.9.5-2.5 1.9-4 1.8-.2 3 .6 2.8-1.3 4-1.3 7 .8 3.7 8.7 10.5 3 7.6 2.1 2.9 4.4 3.2 4.6 5.9 1.9 3.1 1.4 5-3.9 3.1-2.3.1-1.3-1.4 1.7-3.4-.3-2.1-6-3.2-2.5 1.1-2.9 2.1 1.7 3.9 1.9 2.6.9 3.5 3.6-.3-4.8 4-4.5 2-4.5.1-2.8.4-1 1 2.3.7 1.9.1 3.1 2.1 8.7 2.5 4.2 3.2 4.1.3 4.1 5.9 7.1 1.6 4.1 5.9 5.4 1.2 4.7 2.2 1.4 2.1.7 3.8.3 8 1 5.9v1.9l-.3 2.8-1.3 1.4h-1.7l-3.3-4.3-5.1-4.6-5.4-5.4-1.5-1-1.3-.1-2.9 1.8-8 1.4-3.8 2-1.4.4-.4 1 1.8 1.1 2.2 2.5v3.4l1.8 4.1 2.3 1.1 3-.1 1.7.8.4 1.6 1.8 1.9 1.2 1.4v1l-8.4 2.7-1.8 1.2-1.5.6-2.2-1.3-.1-3.3-2.9-1.8-2.6-1.5-3.2-.6-2.7-2.3-1.8 1.8 1.4 6.4 3 4.4 5.1 11.7 2.3 6.9.5 3.3-1.2 5.5 2.5 4.1 1.7 4.2-1.9-.2-1.6-1.5-2.8-1.8-5.3-6.7-1.9-4.2-2.2-.3-3.9.6-4.2 9v5.1l-2.2-1.2-1.9-1.6.2-5.6-.2-2.4-5.1-7.7-2.4-.9-1.1-2.6-1.9-2.8-2.4.5-2 1.1-.5 4.2-.2 3.7-1.5 2.8-5.5-5.3-5.5-9.3-.1-5.1 4-4.7-.5-3.3-3.8-6.6-5.5-4.2-3.1-1.3-1.5-4.5-2.9-2.3-2.4-1.1-.5-1.6.7-1.2 5.8-4.7 3.4-7.3 1.7-.3 3.5 1.7 3.9-.5 3.2-4.3 2.7-2.3 4.6.3 10.3 5.7 11.1 3.3 5.5 2.9 3.1 2.8 1.7.6 2.6.4-.1-2.1-.8-1.9 2.2-1h5.9l1.1-1 1.1-1.6-1.2-1.8-2-.9-2.1-.2-1.4-.6-2.2.6-3.5-1.4-1.8-1.2-1.1-1.2-6.1-2.4-5.7-4.1-1.3 2.3-2.3 1.2-3.3.2-9.3-2.6-5.7 2-3.1.5h-2.4l-2.9.9-3.4.5-2.9-3.7-1.2-2.9-.9-.5v2.7l-.9 2.2-4.3 1.2-2.5-1.7-1.9-5.1-2.4-6.6-4.2-5.3-3.4-1.4-.3-2.9.3-2.3 4.1-.6 6.4 2.4 1.3-.5 1.4-1.1-.3-2.5-.9-2.2-1.8-.1-1.2.3-4-.5-5.1 1.2-2.4-1.2-.8-1.4-4.2-3.5-3.7-4.7-5.9-3.1-3.9-9.6-3.3-4.2-3.5-3h.8l1.3.5 2.5 1.7 2.7.4 1.5-1.1.8-1 .5-1.7.2-1.9.4-.6 2.1.2.7-.5V402l-1.3-2.2-1.2-2.7V396l1-.5 1.6-1.2.9-1.4 1.7-.7 2.5-.1 2.8-.6 1.8-1.5.3-1.5 1.1-4.2.7-2.1 1.2-1.9.6-2.5 1.3-2.4 2.7-1 2.4-1.2 1.8-3.1 1-2.6v-1.6l-1.5-2.6-1.1-2.6.3-3.4 4.8-.3 1.7-.3 6.3-.2 2.9-1.8 2 .2 4.1 1.6 1.8-1.2 5.4-2.4 5.3-7.1 2.3-1.1 5.2-.4 1.6-.8 1.9.2 5.8 1.4 3.3.2 3.9-1 4.3-1.7 1.1-6.1 1-.9 2.7-.2h2l3.9.5 4.6.2 3-2.8 4.7-.2 2.2-.4 3.6.6h3.5l4.5-1.2 4.2-2 3.3.2 1.3-.4.8-.4.8-2.6 6.2-.2 2.1.3 3.5.1 3.6-1.4 1.1.1 1.8 3.9.9 1.1 1.9 1 4.3 2.9.8-.8 1.8-1 5.2 1.3 5 2.2 4.2 3.3 4.6-.9 5.1-1.6 3.3-.5 3.6-.2 2.2-.7 4.9.8 5.1-1.8 2.4-1.6.7-2.2-.4-3.9-1.2-3.9-1.2-1.5-.4-1.5.7-1.4.8-1 3.3-.8 4.7 1zm-54.9 49.8l-4.6 1.6-4.6-3v-1.8l2.4-3.7 1.3-1.1 3.4.3 1.9 2.5.5 1.2-.6 2 .3 2zm32.4 8.4l-4 1.2-4.4-3.7 4.3-1.5 2 1.1 1.4 1.3.7 1.6zm-8.8 19.7l-1.3 1.5-1 2.6-.5 3.7-2.1.1-1.3-.7-.4-1.4-.1-1.8-.9.1-.7 1.9-.6.9-2.1.2-2.3-1.2.1-2.5-.5-3 .2-1 6.3-.3 1.8 2.2 2.2-1.3.9-1.4 2.7-.9-.4 2.3zm-190.2 24.4l.8 2.5-4.4-1.5-3.2-2.2-2.7-5.5-5.7-6.2-.1-1.8 2.2-1.4 4.7-1 1.9 1 1.2 1 .4 1.2-2.6 2.4-.5 1.1 2 2.1v.9l.8 4.1 1 1.6 2.6 1.2 1.6.5zm224.7 4.5l-.6 2.6 4.9 4.3 1.7 2.7.6 2.6-.4.8-1.9-1.4-1.5-.5.5 1.9 1.6 1.6-2.8.9h-2.8l-8.1-2.3-1.9-2.4 4.9-3.6 1-1.5-3.4.1-3.7 4.3-5.9-1.9-1.8-1.7-.4-.9 2.3-3.8 4.1.1 2.2-.9 2.7-1.2v-1.8l6.5-.4 2.2 2.4zm-89.5 7.5l-1.7.5 1.7-3.5 2.9-1.8-1.1 2.9-1.8 1.9zm-3.9 2l-1.6 1.5-2.5-.6-2.6-5 6.7 4.1zm-12.9 6.8l2 4.7 1.9 1.6 3.9 1.9 1.9.2 6.7 3.4 7.8.7 1 1 1 2.6 1.6 2.1.4 1.6-.8 1.8 1.2 5.4 2 5.1 3 2.5 3.7.8 3.5-.1.9 1-.4 4.5-1.5 1.8-1.2.4-1.1-.5-1-1-1-.5-2-.1-1.5-1.8-3.8-2.5-.7-1.5-.1-2.3-1.6-1.7-1.5-3.2-1.4-.9-.8-1.6-.1-.7-5.5-.5h-4.5l-3.8-1.8-1.2-4.8-2.3-1.3-1.7-1.4-1.4-1.9-3.6-3.4-4-2.9-3.8-1.9-4.1-1.3-3.3 1.5-1.9-.3-.4-1 4.1-2 5.7-3.8 4-1.3 1.9-.2 3.8 3.6zm44.7 6.5l-3.7 1.1-1-.2.8-1.3.1-.6-3.7-2.5.4-3.2.4-.8 2.8 1.7.6 2.8 3.3 3zm-141.5 8.7l-1.4.3-1.2-.2-1.1.2-1 .8.1-3.4 1.2-4.3 1.5-2.5 2.1-1.2.9 2-.2 7-.9 1.3zm191.9 17l-3.4 2.4-3.8-3.5-.6-1.1 2.8-1.4 1.4-2.2-1.1-2.7-3.9-4-.2-2.8 5.9-1.2 3.5 2.5 1.8.2-.7 2.4.3.8.3 7.2-1.6 1-.3 2-.4.4zm-189.4-4.8l-1.8.5-2.2-4.1-.8-2.9.9-.2.9.3.9 1.1v1.1l.4 1.2 1 1.4.7 1.6zm-5.2-2.4l.4 5 2.5.9 3.3 4.5-.3 2.3-.7.8-5.5-2.1-1.3 1-1.6-.4-1-2.5.1-.9-.9-1.5-.8-.7-2.2 2-1.4.4v-1.8l2-5 .9-.8 1.6 1.6 1.4-.6 1-2.7.1-2.7.5-.8 1.9 4zm104.3 19.8l-1.4 1.1h-1.6l-1.1-.4-.6-.9.7-.4.8-1.7.8-.5 1.1.2.7.7.6 1.9zm51.1 7.1l-1.1 2.9-2.8-3.4-3-2.3-1.1-2-1.8-1.2-.5-2.7 2.2-1.1 1-.1 2.3 3.3 3.6.4-.3 2 1.1 2.6.4 1.6zm-145.6-1.9l3.7 4.2-3-1-3.2 2.9-4.1-3.4-2.4-3.4-.5-1.4 2.6-3.2 2.4 3.3 2.9.5 1.6 1.5zm210.7-.3l4.4 1.4 1.2-.2 2.1.5.5 2.6-2.7.4-4.7 2.4-2-.5-2.4-2.1-3.8-.2-1.1-.6 2.1-2.5 3.7-1.2h2.7zm-87.6 10.1l-2.4 2.1-.4-3.1 1.5-3.3 2.1-.2.8 1.4-1.6 3.1zm31.9-1l-1.3 2.8-2.2-.4-3.7-3-1.3-1.4-.7-1.3 1.5-.2 1.9 1.4 4.7.7 1.1 1.4zm27.5 3l-1.7.2.5-1.7 3.2-3 4.4-.1 4-1.5h.9l-1.9 2.3-3.3 2.2-6.1 1.6zm-22.3 4.8l-3.4.3.2-3.3 1.3-.9 4.1 1.6-.2 1-2 1.3zm-16.3-3.2l-.2 4.4h-.9l-.5-.7v-1.7l.4-2.7 1.2.7zm-18 6.4l-2 1.3.7-3-1-1.5.9-1.3 1.3-1.1.6 1.1 1.2 1.8-1.7 2.7zm3.1 9.3l-1.3.6-2.2-.9.6-2.3 1.5-1 1.6.8.2 1.1-.4 1.7zm36.3 6.7l-3.2 1.6-2.2-2.3-1.2-3.7 5.8-5.4 1.4.5.8 1.4-.1 4.8-1.3 3.1zm-9.5-4.3l-2.8 3.3-2.4-.4-1-1.5 1.5-3.1 3.2-1.8 1.4.5-.1 2.3.2.7zm61.8 4.7l-3.5.6.6-3.4-1.7-2.7 2.8 1.5 1.8 1.8.9.3-.2 1.1-.7.8zm-81.6 1.6l-.6.2-.9-1.8-.2-1.7.4-1 1.2-.1 1.7 3.2-1.6 1.2zm40.4 5.5l-3.1.4-1-.3 1.9-.7 1.3-.8.6-.9 3.2-1.7 2.1-2.2 2.3 1.5-2.8 1-4.5 3.7zm38.7 2.7h-1.1l1.3-2 3.7-2.8 5.4-2.5 1.8-.3 3.1 1.5-5.6 2.5-1.5 1.3-4.2.3-2.9 2zm-55.6 2.3l-.6.7-2.7-2.7-1-1.6 1.3-1.3 3.9 3-.9 1.9zm-30-3.8l.1 2.5-.3.9-7.3 1.2.7-2.9.4-.9 2.4 1.3.9-.7.4-.8 2.7-.6zm117.9 8.9l-.8.7-1.8-1.9-.1-1 1.8-1.2.9-.3.3.8v1.7l-.3 1.2zm-49.6-1.4l-2.8 1-1.8 2.1-2.2-1.5v-2l2.4.6 1.7-1.2-.5-1.3 1.8.6 1.4 1.7zm-34.7 8.2l-1.6 2.2-2.3-.8.9-.8.6-1.1.1-1.6-.6-1 .4-.3 2.1 1.6.4 1.8zm83.7 19.5l-2.6.9-.9-.1-1.1-1.9 1.5-4.7-1.4-3-.1-1.3 2.1-1.8 1.4-2.7 3.5-2.9 9.1-3.4 2.1-.3-.1 2.7-3 6.8-2.7 3.4.7 2.7-4.3.8-4.2 4.8zm-169.9-11l-.4 1.8-3.7-1.3-1-1.9-.2-4.2 1-2 .6-.6 1.7 2.4 3.5 3.4-1.5 2.4zm146.3 30.4l-1.4 2.3-1.4-2 .6-2.3-1.6-3.6 3-5.4.1-2.6 2.3-1.3-.6 4.4-1.8 3.6 1.8 3 .9 3.4-1.9.5zm-118-2.9l2.4.3h3.3l.7-.3 2.1-2.4h2.6l1.1 2.4-2.6 1.1-.5.6.5.5 2 1 2.7-.4.1 1.9.6 1.5 1.3.9 1.5.2 3.2-.3 3.2-.6 3.3-1.2 3.3-.6 10 .6 3.6 2.6 6.8.3 6.3 1.4 3.3-.9 5.7-.8.9.9-.7 5.9.4 1.7 1.6.8 1.6-.4 2-1.9 4.8-1.5h5l4.2-3.9 1.2-.2-.8 1.9-.6 4.5-.9 2.7-.4 2.1-2.8 1.1-4.2.2-7.7-.5-7.8.7-14.4 2-14.4 1-1.9-.7v-2.6l-.3-1.8-.9-1.3-4.5-1.1-4.2-1.9-16.7-2.6-3.9-1-6.4.5-2.3-.1-1.6-.9-1.1-1.6-.5-5 .8-5 1.4-1.3.6 1.5 1.6.7 1.5-1.5v-2.3l.8-2.1 1.2.9.8 3.3 2.1 1zM855.8 91.2l1.9.7 6.3 3.4 4.4 3.8 2.4 4.2 3.3 3.3 4.1 2.3 3.3 3.1 2.4 3.9 3.4 2.2 4.4.5 2.8 1.3 1.2 2.2 2.4 2 3.6 1.8 5.5 1 10.6.2.9.1 2.4.6 2.8-.7 3.4-1.4 1.1-.8 3.6-4.6 2 .4 3.9-.6 2.4-1h.2l-.2 1.2-.3 2.1-1.9 1.4 2 3.3 1.9 5.4-1 2.7 1.3 2.1 3.6 1.5.3.6-1.1.6-.9 1.8-.1 3.2 3.1 3 6.4 2.8 2 .5.8 1.1 1.1.7.6.9v1.1l-.5.8-3 .3h-3.4l-2.5-1.4-.2 1v1.1l-2.4.7 1.3 7.9-.5 2.3-.9.8-.8-.3-1-.1-.5.7.4 1.7-2.3.2-3.7-.9-1.7-1.5-.3-1.5v-1.4l-1.2-2.4-3-2.5-6.2-.4-2.3-.8-2.4-.9-2.6-.7-2.4.1-2.9.7-5-1.1-1.7 1.4-2.6 1.7h-2.2l-4.3-3.9-1.3-.2-3.8 2-1.6.1-1.2-.6-5.1-1.5-2.3-.3-1.7.7-3-.8-7.3-5.1-4.5 3.9-9.2-1-2.7 2.6-3.1 5-2.5 2.4-2.2-.9-2.6-2.2-4.6-5.7-2.3-1-2.7-.2-2.3.6-1.2 1.1-.9 8.3-.8 7.3v4.3l5.1 4 6 6.9 1.9.8 1 2.2 1.4 5.8 1.6 6.5 3 4.3 2.7 3.1 3.3 2.7 4.2 4.2 3.4 4.6.9 1.7 6.7 6.1 6.5 6.2 5.8 2.2.9 1.1v4.8l.6 1.8 3.9 5 7.9 7.3.9 1.7.3 1.2-.5 1-2.1 1-1.7-1.1-7.4-7.1-7.1-4.5-8-8.5-10.7-3.4-7.3-3.7-4.4.6-4.9 1.2h-3l-2.2-.7-1.5-2.3.2-1.8-.3-2.3-4.3-3.7-5.9-3.6-5.5-4.6-11.2-12.2-2.2-4 2.2-.8 1.7.1 1.9-.8h3l3.6.8-3.2-2.7-4-2.6-10.2-10.5-3.1-5-.4-5.4.8-7.3-1.8-5.3-7.9-6.8-2.9-3.6-5.8-2.2-2.6.2-1.6 2.7-1.1 5.9-5.2 7.8-1.7 3.4-2.7 4.4-2.4.3-1.4-.4-4.2-7.4-4-5.6-.6-2.7-.4-3.3-3.1-12.1 2.2-1.7 1.3 1.9 9.3 2.3 2-1 1.2-1.6v-1l.8-.3 3.3 1.5 2.7-.4 4.3-.1 3.1.3 2-1.2 2.8-4.3 1-2.4 1.2-.6.8.3.6 2 1.5 1.9 3 3.1 2.1 1.5 1.9.5 1.9-1.2 1.9-.4 5.5 2.4 4.7.4 3.5-1.2-.5-1.7-1.3-1.9-.3-1.8.2-1.6 2.4-1.6-.1-.7-2.9-2.8.1-.7 6.3-3.2 6.1-1.8 1-1.4.6-2.1.3-3.9-.3-3.2-2.5-3V109l.6-1.6 1-1.4 2.4-.6 2.8-1 2.2-1.2 3-1 2.4-1.4 2.3-3.2 1.4-.5 4.3.5.9-.8-.6-4.7.8-1.2 1.5-.7.7-.7 3.8.5 3.3 1.2zm-60.5 74.3l-4.4 1-2.1-1.8-.5-1.5-3.6-.5-2.2-2.1-.4-.9 3.1-2.3 1.6-3.8 2.1 2.3 2.5 4.2 1.4 1.2 2.5 4.2zm-11.4 15.2l-.3 1.8-2.2-2.3-1.1-4.2-2.7-6.8-.4-1.9 1.4-1.9-.1-1.9-1.9-6 1.6-1 1-.1.4 4.2.9 2.4 2.6 2.9-.5 4.9.5 6.9.5 1.5.3 1.5zm12.2-4.8l.9 2.1-3.3-1.9-3-.7-.7-1.4.4-1.2.6-1.1 2.3.2.3 1.1 2.5 2.9zm12.6 20.2l-.9 1.3-2.3-2.3-2.1-1.7-1.5-2-3-2.5-1-2.8-4.4-5.7-.7-1.6 2.2 2.3 1.8 1.5 1.5.4 3.8 3.7 3.8 4.7 4.5 4.1-.9.1-.8.5zm0 19.6l.5.7v.5l-1.8-.7-.5.2-8.7-10.3-.9-2 3.1 2.4 8.3 9.2zm1.5-6.6l.6 1.7-4.4-3.1-1.7-2.1-.3-.9 5.8 4.4zm5 4.2l2.3 3.5-2.2-.7-2.3-2.2-1.4-2.4 3.6 1.8zm50.2 33l-5.6.1-4.9-.9-2.4-1.4.2-1.2.7-2 5.4.2 8.3 1.4 2 1.7-.6.8-3.1 1.3zm14.5 6.8l-2.5.5-15.8-.4-4.6-1-5.1-2.5-1-.8 5.1-.7 4.8.7 1.5 1.8 12.9 1.4 4.7 1zm16.8 10.6l2.6-.9 2.2.6 1.4 2.6 2.7 1.8 4.5 3.1 2.8 2.3 6.4 4.2 1.5.6 3.2 1.3.1 1.7 1.4 1.9 1.4 2.2-6.5-4.4-6.1-4.9-12-7.6-8.5-1.8-11.6-6.1-7.5-2.2 2.9-.5h3.3l17.9 8.1-2.1-2zm-36.1-4.6l6.6 1.3 4.8-.6 4.3.8 2.7 1.5.6.7-3.5.1-4-.6-4.5 1.5-4-.8-1.5-1-1.1-1.2-.4-1.7zm34 10.6l4.8 3.2-14.2-4.2 1.6-.4 1.5-.1 6.3 1.5z"/><path fill="#EBEBEB" stroke="#949494" stroke-width=".5" stroke-opacity=".8" d="M1055.2-4.7l3.4-.4.1.1.8.2.6 2.4.1.2.8 1.6.8 2.1 1.2 1.6 2.6.6 3.4 1.9 2.2 3.6 3.3 1.5h.2l.7-.2 2.4-.1.5.7 1.9 1.8.7 1.6-.4 1.7.3 1.9.7.7-.9 1.3-6.2 6.3-2.4 1.7-1.6.3-2.5-.7-2.6.5-2.3 1.3-2.2.4-1.6 1.6-2.1 3.4-2.6 2.9-2.6 1.8-1.4 1.6-.2 5.5-1.5 1.6-1.9 1.6-1.1 1.4-3 8.3-2.3 2.7-2.2 2-.4 1.9v2.1l-2.4 4.3-3.2 4.4-.6 1.8.7 2.4-3.1 2.8-1.8 1.3-1.5.6-.9 1.8-1.5 4.3.4 1.9v1.8l-2.6 1-.8 1.9-.7 2.4-1.1 1.1-2.9 2-7.2-.9-2.7.7-.8 1.4-.2 1.1-.9 1.1-1.6 1.3-1.7.6-3.8-1.6-8.1 1.7-1.4 1.2-1.1-.9-1.7-.8-8.1-1-3.2.8-4.3-.3-3.9-.9-2.9.7-2.6 3.3-1.3 1.1-1 .7-2.2 1-1.9 1.3-2.5.9-2.2-.1-2.1-1.4-.7.3-.7 1.3-1.1 1.1-3.1 1.4h-1l-2.4 1-3.9.6-2-.4-3.6 4.6-1.1.8-3.4 1.4-2.8.7-2.4-.6-.9-.1-10.6-.2-5.6-1-3.6-1.8-2.4-2-1.2-2.2-2.8-1.3-4.4-.5-2.8-2.2-2.4-3.9-3.3-3.1-4.2-2.3-3.3-3.3-2.4-4.2-4.4-3.8-6.3-3.4-1.9-.7-.4-1.1-3.1-4.2-1.3-1.6.1-2.1-.6-1.2-1.1-.8-.6-3-.4-2.3-.9-1.5-6.8-.3 5.7-5.4 2.8-1.5 3.3.3 1-.5.3-.8.6-1.8.3-1.7.3-1.6-.4-.9-1.6-.3-.8-3.9.8-1.5.8-1-1-4.7.3-1.6 2.6-.3 2.1-1 1.7-1.1.5-1.5 1.4-3-1.3-3.7-7.4-2.4-.4-.9 1.7-1 2-1.4 1.1-1.2 1.4-.2 2 .6 3.6 2.7 1.4.4 1.3-.8 1.4-.2 3.9.1 3.3-.6-.7-2.8v-2.1l-.6-1.7.4-1.8 1.3-1.4.4-3.2 2.1-2.2 1-.3 3.6.4.9.6.6.1 5.8 5.2 5.5 3.9 4.5 2 6.6.2 7 .2 11.7-.7 8.8-.5.6-1 1.3-2.4-1.1-2 .1-2.4 1.5-3.1 4.3-2.6 12.5-1.1 7.2-1.9 1.1-2.6 2.4-2.6 2.2-.5 3 1.2L973 8l3.2 1.2 1.8-.8 6.3-3.8 7.3-3.8 5-10.2.5-1.6 5.4-1.2 7.9.2 4.1 1.3 3.1.7 4.6-.2 6.6-2.2 2.4.1 1.9 1.6 2.1 1.4 1.4 1.6 1.1 2.3.6.9.9 1.2 1.7 1.6 1.6.4 12.2-2.8.5-.6zm803.2 524.2v.3l1.2 3 2.9 11.2 1.7 1.4 1.9 1.2 1.3 1.7.5 1.7-.2 2.6.1 3 .8 2.3 1.1 1.8 1 .9 1.5.1 1.8.4 1.2 1.7 3.9 12.7.4 1.7 1.6.5 2.7-.2 2.8 1.3 3 2 2.8 3.9 1.9.6 5.9-.6 8 .6 3.8 2-.4 1.2-2.9 1.4-5.1 1.6-1.5 2.7-.8 3.5.2 2 1.3 2.2 3.6 4.3.2 1.6.6 2.2.7 1.5-.7 2.9-3.3 2-4.3 2.1-8.6 9.5-.6 2.1.1 5.6-.9 1.6h-2.7l-2.1-.3-.1 2-1.4 2.6-.8 2.3 3.2 5.4.6 2.8-.5 2.6-2.9 4.5-1.7 3 .4.7 2.3 1.2 7.1 9.8 2.3 3.4 3-.9 1.1.1.9.5.5 1.2v1.5l-.8 2.2 3.8.9 1.4 2.2 4.5 7.6-.2 2.2-2.1 3.6v2.4l.5 2.1.7.7 6.6.3 2.8.8 6.8 3.8 7.8 5.9 6.4 4.8 5.4 4.1 5.8-.3 1.6.7 1.5 1.3 1.7 3.4 3.3 7.6 2.8 2.5 4.4 6.1 4.1 5.7-2.7 7.7-2.6 8v15.8l5.6.2 6.2.3.1 6.6.1 6.6.1 7.5 1.8.3 2.9 1.6 1.2 2.4 1.5 1.3 1.9.2 1.8 1.2 1.8 2.2.7 1.6-.5 1.1.4 2 1.3 2.8 1.6 1.3 2.4 1.6-3.3.9-3.5-.7-7.6-3.3-2.5-.1-3.2 1.3-.1 1.1-8-3.7-2.9-.7-1-.1h-4.6l-6.5.7-3.8 1.5-2.7 1.6-1.2 1.6-.4.8-2.1 4.6-2.4 5.9-2.5 5.3-4.8 7.4-2.7 3.4-5.8 6.3-6.2 1.3-14.4-1.3-16-1.4-15.9-1.4-11.8-1-.9-.3-11.7-9.1-9.3-7.2-11.6-9-11.8-9.2-12-9.4-8.7-6.8-10.6-8.8-9.6-8-7.6-6.3-9.8-5.5-7.6-4.4-11.1-6.3-8.9-5.1-7.6-4.4-11.7-6.7-3.9-1.8-12.1-2.2-11.5-1.9-11.9-2-7.9-1.3 5.2-4.8-1.6-4.3-3.8.8-3.5 1-2.1-6.7 2.7-.8-2.5-8.8-2.6-9-2.5-8.8-2.5-9 10.1-5.8 7.5-4.3 10.5-6.1 10.1-5.8 9.7-5.6 10.6-6.2 9.5-5.5 8.7-2.2 1.8-1.7 4-7.6 3.4-6.5.2-1.5v-9.2l.6-10.8 1.1-5.8 2-5.1 1.8-3.8.2-3.5-.2-3.6-1.9-5.4-1.9-5.7.2-5.4.4-2.9 1.2-4.7 2.1-3.4 2.2-2.1 8.3-2.2 4.9-1.3 6.6-6.1 3.9-3.6 5.4-5.7 4-4.2.3-1.5v-.6l3.4-.9 6.4-5.1 3.8-4.8 1.2-.4 3.3 1.6 2.4.4 5.5-1.8 3.3 1 2.8 1.2 1.5.1 7.4 3 1.9.4 3.8.4 5.7.2 3.7-2 2.6-1.9h1.8l1.8.5 1.5.8 1.3 1.4.6 2-.2 6.4.6 1.7 1 1.2 1.3.2 1.6-1.4 2.7-2 3.3-2.2 2.5-2 1.4-.8 2.2.1 2.2.4.5.7zM755.9 90.2l-.7 2.8-1.5.7-2.6 1.7-3 2.3-2.8 2.5-.8 2.8.8 1.8.8.6 1-.5 1.5.3 1.9 1 3.1 1 .1.9-.7 1.2-2.4 2.2-2.2 2.4-.2 1.5.3 1.1.8.7 3.2-.3.5.9-1.6 6.2.5 1.1 2.8 1 2.1 1.5 3.9 3.9 1.5 3.2-1.1 1.1-2.4.5-2-.3 2.2-1.9-5.5-7h-2.5l-3.3 3-9.2-3-1.8 1.2-1.3 2.4-3.2 2.9-4.5 1.3-5 3.2-5.3 2.3-4 1.7-2.3-.3 3.7-3.7-1.7-.1-4.9 2.6-2.8 2.2-.9 3.7-.8 6.2 2.2 1.6 3.8 8.1 4.6 3.5-.9 3.3-1.2 2.6-2.8 2.2-2.3-1.7h-1.4l-1.1 5.3 2 14 3.2 9.8 3.2 4.3 7.2 6.6 7.7 3.5 13.8 11.1 7.6 3.5 2 1.9 4.6 8.5 4 9.8 4.3 15.3 3 7.5 6.1 8.5 12.7 12.1 11.5 8.8 10.8 5.4 8.4.9 19.8-1.2 3.5.5 3.7 1.5.9 3.8-1.3 2.5-4.2 2.6-4.2 3.6-.5 5 4 3.5 19.1 9.2 19.6 7.7 6.1 3.9 7.1 6.1 17.1 8.3 2.9 4 10.4 8.7 4.7 6.7.9 5.2-2.2 5.2-1 3.7-1.8 3.6-4.4-1.4-5-3.7-7.6-15.3-13.8-1.5-2.9-1.1-4.9-2.6-.3-1.7-1.2-2.2-1.2-.7-5.3-.5-3.7 2.5-4.3 5.9-4.9 8.4-5 12.3-.3 5 2.7 4.8 8 2.7 6.2 4.3 4.1 4.5.3 10.7 1.8 6.1-2.7 3.4-5.2-.9-7 2.2-4.9 3.9-2 3.7.5 9.6-1 3.7-9.3 6.9-4.9 7.1-1.2 2.9-1.9 3.3-11.8.1-2.8-4.1-.1-6.1 2-3.8 4.3-1.8 2.9-7.8-.9-5.7 1.7-2.5 1.6-1.8 3.3-1 4.7-1 .5-7.9-3.6-3.6-1.3-5.1-1.7-9.4-6-12-3.2-10.8-2.5-5.3-3.8-2.8h-6.9l-3.4-.8-12.2-7.5-.8-1.1.1-2 2-3-1.4-4.1-1.4-3.9-2.4-3.3-2.6-1.7-5.5 1.1-1.9.8-3.5-.3-2.7 1.5h-1.5l4.3-5.8-1.2-1.4-4.2-2.4-5.7-.4-1.6-.3-.9 1.5-1.1-.8.1-2.6-6.7-11.7-4.5-4.8-2.3-.9-4.1 1-6.8-2.1-4.1-.5-2.2.5-3.4 1.5-1.7-1-.6-1.6-6.2-4.9-7.8-2.8-15.1-15.6-4.6-5.9-9.5-6.5-6-9.4-4.9-3.5-7.2-2.8-1.7.4-2.2 1-1.7.1-1.3-1.2 1.4-1.3 1.5-.6-.6-3.6-8.2-9.4-4.8-3-1.4-1.9-1-2.6-1-1.7-2.3-1-1.9.2-2.7-.6.1-4.5.5-3.5-.4-3-2.6-7.8-4.5-6.6-2.7-15.9-2-4.5-5-3.4-11.2-3.8-16-10.4-3.3-.2-9.4-4-5.8-.7-7.6 3.6-9.2 9.9-7.5 10.3-2.7 2-9.6 3.5-8.5 1.7-.1-2.6-.3-2 1.4-2.2 2.4-2.6 2.2-3.2.9-2.3-.4-1.6-1-2.3-1.3-.2-8.1 1.9-1.9-.5-6-3-6.5-3.7-2.4-2.6-.9-2.7.7-1.7-.5-1.7-1.3-2.3 1.1-2.6 2-3.2 1-2.2 1.7-.6.8-1.3-1.4-5.3-.7-.9-1.2-.7-1.8-.1-3.1-1.1-2.2-1.8-.5-2.5-1.2-2.4-2-2.2-.3-2.4 2.3-1.3 3.1-.1 2.2.5 4.9-3.9 1.8-.3 1.6-.8 1.4-5.3 1-1.6.3-.9-1-1.1-4-3.7-1.8-3.9-2.9-4.4-2.7-1.9-.5-1.5-.1-1.9.5-1.7 4.8-2.6 2.9-2.8 1.2 1.1 2.6 1.1 7.1-1.6 4.4-1.6 3.1-1.7 1.9.3 6.9 2.5 2.3-1.3 5-3.3.7-1.8 3.9-5.3.1-1.3-1.6-3.4.5-.7 4.8-3.5 2.4-3.1 2.6-2.1 1.8-.1.5.7.2 1.4-.2 5.9.7 1.8 3.8 4.2 2.7 2.4 6.3 1.7.3.8-1.7 3.2 3.8 3.8.7 2.8 1.8 1.6 2.5-.8.8-1.5-1-2.6-.7-2.7.1-1.6.7-1.8 1.7-2.5 4.7-5.7 1.7-3.3.3-5.1v-4.1l1.6-1 3.4.7 1-.1.5 2.5 1.4 4.1 1.7 2.1 1.8.5h2.1l5.3-2.5 3.4-1.1 1.9.3 1.2 1.7 2.5 4.4 1.4.5 1.7-.5.6-.8-.5-1.7-.7-3.7-1-2.9-1.3-1.3-.3-1.7.8-3.1.9-2.6 1.8-.7 2.1-.3 2.7 2.8 3.2.9 2.4-.1.4-1.6-.2-1.8-1.4-2.3.3-3.5 1.7-6.5.9.5 3.6.1 3.9.4 2.5 2.6 2.5.9 3.5.3 2.3-.4 1.1-1 1.4-3.1 2.5-3.8 3.9-2 6.7-.4 3.3-.7h3.5l2.6.6 2.7-.1 6.9-2.7 7.1-2.1 1 .4.2.7-1.3 1.6-1.2 2.2.8 2.5 4 4.9 2.2 3.8 2.1 2.8 3.2 1.5 4.2.9 3.6.3 3.8 1.1 12.9 2.6 6.5.7 4.9.1 7.6 2.2zm-43.1 126.5l1-2.4-.4-1.7-2.2.4-1.6 2.3 1 1.9 2.2-.5zm-1.6 93v-.4h-.3l-.1.2.1.1.3.1zm-72.6-44.2l1.2 1.8.1 1-.8 1.2.3 2.7-3-2.2-4.5 1.1-2.8-.2-.8-2 .6-1.2 4.3-.3 1.3-.6 2.6.3 1.5-1.6zm-27.1 90.3l1.8 2.9 4 11.7.4 2.5-.8 2.6-1 1.8-4 5.9.6 4.9 1.5 3 .2 3.3-.7 4.1-2.5 25.2-1.2 4.4-.8 3.9-2.7 1.2-3.5-1.2-4.4-2.2-2 .1-2 .7-1.7-.6-1.6-1.2-1.2 8.6-2 3.5-3 2.2-2.8.1-2.9-.7h-2.5l-1.9-1.6-1.5-2.9-2.4-3.5-2.4-4.2-.3-3.8-.4-8.4.7-1.8 1-1.8.5-3.7-.3-3.3.7-1.2 1.4 1.2 1-.4-.1-1.7.3-3.1-1.8-2.6-3.1-.9-.3-2.7.3-2.6 1.6-1.8.6-2.4v-7.2l-2.2-2.7-.8-4-1.1-2.6-2-2.6-2.3-2.1-1.4-2-.3-5.4.8-4.5.7-1.9.7.3 2.3 2.2 1.9.5 3.7.5 3.7-.7 4.5-2 4.3-2.5 6.3-7.2 3.9-1.5 2-1.9.7-2.6 1.6-.7 1.9 2.5 2.4.3 3.7 2.1 1.6 2 1.4 2.4 1.3 1 1.4.6.2.6-1.1.6-1.3 2.7.7.8 2 1.5zm-47.7-7.1l-1.2 2.1-1.7-.1.7-1.5 1.5-3 1.9-1 .8.9-.9 1.8-1.1.8zm200.6 15l-1.6.4-.9-.5-.5-.7.6-1.7 3.2 1v.9l-.8.6zm-193.8 72.6l-2 4.3-2.1-3.1-.1-2.6.3-.8 2.6 1.1 1.3 1.1zm251.9 36.9l-2.4 4.9-1.2 1.9-8.6 12-1 2.8-.6 3-.9 2.6-1.2 2.5-1.1 3.1.2 3.5.4 1.7 1 1.1 1.7 1.1 1.3 1.7-2 1.5 2.2 3 1.9 1.8.3 1.8v1.8l-3.9 3.3-1.5 1.8-.9 2.2-.4 2.3.4 2.1-.1 2.1-3.9-.3-4-1.3-4 .5-5.7-2.4-2.1-.4-1.9-.9-4.8-7.4-3.8-3.1-4.1-2.4-4.2-.1-4.2.3-3.7-1.5-7.6-5-8-4-3.4-2.6-1.6-1.8-1.8-1.2-4.6-1.2-4.1-2.8-1.9-.2-4 .3-2.1-.2-2.1-1-4-3.2-2.6-4.5-.7-2 1.8-5.1 2.2-4.9 1.9-1.4 2.2-1 1.3-1.5 1.1-1.8 4.1 5.2 1.8 1.3 1.9-.3 3.3-1.8.3-2 3.7-2.6h4.7l2.2.5 1.1 2.3 1.8.7 2 .3 6.8 4.4 1.9.7 1.9.1 5.2-1.9 4-.7 8.4 1 4.6-1.1 3.2-.1 4.6-1.7 3.6-2.8 1.9-.7 2-.2 4.8.2 4.9.6 2-.7 1.7-1.9 2-.8 2.2.6 5.6-3.2 2.5-.2 2.4 1.2-2.3 2.1zm-125.1 62.7l-1.7.5-2.2-1.5-.2-2 .4-.6 2.7.9.8 1.9.2.8zm337.5-242.2l-6.1 1.3-2 1.5-1.2 2.6-.4 1.4h-1.1l-1.8-1.4-2.2-2.1-2.9.2-10 4.6-1 2.4-.2 5.2-.7 1.4-1.1.9-4.1-.6-.4-.3.5-2-.2-4.4-1.9-7.3-1.3-2.4-2.7-2.4-2.1-1.6-3.8-1.4-1.9-4-2.9-4.5-1.4-1 .2-.5.7-3.4-.8-2.5-1.3-2.1.9-1.3h2.7l2.2.2.8-2.1 4.6-1.3 4.4-1.4.6-1-1-2.1.6-1.3 5.3-3.8.9-1.7.3-1.3-.7-1.4-1-2.2.5-.9 2.7-1.3 2.2-1.5 1.3-.1.8 1.1v1.1l.7 1.9 1.6 1 2.7 1.7 3.2 1.1 2.5 2.3 3.4 4 .5 2 3.1 1.8 2.8 2-.4 3.7 9.7 3.2h2.2l1 .6v.8l-.8 2.6-4 8-.3 1.6-2.8 1.7-.4 1 .8 2.2.5 1.5zM1542.7 674l-1 .7-1.9 1.9-1.9 1.5-3.8 2.3-.9 1.4-.8-1.3-1.7.9-1.4 5.3-2.9 1.8-3.6-.2-3-.5-4.1.3 1.7-3.1 1.7-4 1.7-5.4 3-4.5 6.2-15.4 3.6-6.2 1.3-8.9 5.6-7.8 4.2-2.3 2-2.2-.1-3.4h6.2l4-.2 1.2-1.9 3.1.9 1.7 1.8-1.6 1.9-2.2 2.2.1.6 1.7.2 2.8 1.2 1.7 1.4 2.9 8.7-1.8 3.6-2.8 3.2-1.2.3-2.4 1.6-2 2.2-.7 1.4.2 1.3 2.9 1.6.1.6-.6.5-2.3-.4-3-.2h-1.8l-2 .3-2.6 1.9-1.2 1.3-.6.8-.9 2.6 1.1 1.8 1.9 1 .3.5-.4.9-1.9 1.1-1.5 1.4-.4 1.4-1.9 1.6zm-933-610.5l-2.8-.3h-.5l-.3-1.8.2-3.8 1.5-4.9.3.8.2 1 .3 1.1.2 1.3.6 1.4 1 1.3.3 1.2-.5 1.6-.5 1.1zM190.9 605.2l1 3.1 2.1 2.5 7.5 5.6 4.4 3.5.1 1.2-1.4 2.8-.6 1.9 1.2 2.1 2.7 2.5.2 1.2-.7 1.4-1.4 2.7 3 7.9.5 7.6-.8 5.4v3.1l.4 2.7 2.6 6.1-1.7 10.1 1.9 5.5 2.6 4.5 1.4 7.9 2.1 3.8 3.5 3.3 2 1.1 3.8 2.7 2.7 2.3 1.6 3.4-3.4 2.8-2.8 2.5-.8 2.7 1.3 4.3v2.3l-1.8.7-7.2-.2-5.6-.2-6.4-.2-9.1-.4-5.6-.3-7.7-.3-2.7.2-7.1 1.2-5 .9-.8.2-1.6 1.1-1.1 3.2-1 3.6-1 1.6-15 5.2-5.9.7-3.4-.5-2.4.4-2.1 1.1-.7 1.7-.1 2.1.4 2.2 1.4 3 .3 3-.9 2.1-.2 2.1-.4 2.3.8 1.2 1.4.2 1.5 1 2.1.9 1.7 1.8-.1 2.6-1.4 1.5-1.3.8-5.6.7-4.4.5-5.8 4.1-6.2 4.4-7.3 2.9-3.2.8-5.6 2.1-6.7 3.4-3.3 5.5-4.2 6.3-4 4.2-5.5 4-5.1 1.5-6.4 1.9-8.1 1.5-5.8.5-1.7.3-5.1.1-2.5-.3-1.9-.2-.7.5-.3 1-.1 2.3-.3 2.6-1.6 2.2-1.1 1-1.3.4-4.3-.6-3.6-.7-8.5-.9-1.7.2-.6.3-2.6 1.5-4.1 3.1-2.8 2.7-1.9.8-4.9.7-2.2 1-9.2 6.8-2 1.7-9.4 5.9-2.7 2-2.1 1.9-5.6 4.4-3.6 1.9-.7 1.1-.2 2.7V902h-4.8l-154.7.2.1-.1 4.8-4.4 3.2-5.5 5.5-2.5 11.5-1.2 17.1-4.6 15.4-7 4.4-2.8 4.7-5.6 7.7-7.3 14.5-8.7 6.7-4.9 10.1-12.3 6.7-10.2 5.6-6.6 3.9-5.8 2.7-5.9 1.5-9.6-1-3.7-4.3-6.1-2.9-1.6-.8-2.9 1.5-5.1V769l.9-14.1 4.8-11.4 11.6-15 2.2-6.2 1.3-9.8.1-3.5 14.5-14.1 8.5-10.8 3-2.7 7.5-5 26.2-10.8 14.8-7.8 8.6-5.7 5.2-6.7L44 618.9l14-37.7 1.2-4.4 6.3-1.3 4.4-.5 3.6-1.4 4.4-2.8 4.2 1.1-2.1 1.9v4.7l3 5.5 5.2 6.1 9.5 7.8 7.4 3.1 10.6 1.9 12.3-3.4 6.9-.1 3.4-1.5 3.7 2.2 6.9.7 6.7-1.1 5.1-3.3 3.2-3.8.5 1.8.1 2 1 1.2 2 4.8 1.1 1.9 3.9-.3 3.4.9 7.6-.5 7.4.8zm342.8-381.4l-2.2.9.1-1 .5-.6.7-.3.8.4.1.6zm737.2-81.2l-1.8-3.1-1.8-2.7-1.3-1.4.6-.7 1.4-.8 1-.9-.1-3.2-.8-3.7-.7-1.8-.1-2.8-.5-4.4.7-8.1 2.9-10.3 1.6-5.1-.8-2.8.6-6.6-1.2-3.2-1.9-4.3-2.8-9.3-3.5-3.2-4.3-3.6-1.8-2.7-1.2-3-2.5-3-2.9-2.7-3.5-6.8-1.8-3.1-.6-.8-4-4.4-2.1-4-1.1-3.3-.6-3-2.8-6-2.5-4.5-2.4-3.2-1.1-2.3-2.8-2.9-4-2.3-2.6-.4-3.4.2.8-1.8 7.3-4.8 1.9.8 3.8.2 7.8-.2 3.8-3.1 2.4.9 1.9-1.4 3.2-1.8.5.4.4.3 5 .8 3.8 1.7 2.5 2.6 2.6 1.6 2.7.6 1.5 1.3.3 2 2.5 1h4.7l2 1.3-.7 2.6.5.9 1.7-.9 1.3.8.7 1.9.8.9 2.4-3.1 2.5.3 6.1 1.3 3.3 6.3 2 2.3 1.8.9 2.2-1 2-1.2 1.1.5 2.5 4.2.6 5.4v2.2l-.9 3.7-1.2 3.9-1 2.6.4 2 .9 1.7 1.4.6 4.7 3.5 1.8 2.4 2.6 1.8 1.9.1 1 1 .4 1.2-.3 3.1-1.1 2.9.1 1.8 1.7 2.2.2 2.5.1 1.6.9 1.2 4.3 2.8 5.6 2.7 1.4 2.3.9 2.9-.3 4.9-.4 4.3 7.3 5.7-.8 1.1-1.1 1.2-7 .9-1.4.5-3-4.3-1.6-.5-1.5 1.6-1.8.9-2.1-.4-2.3-1.3-1.2-.9-.9-.1-1.4.9-1.9-.1-1.2-1.1-1.8 3.7-1.1.8-.7-.1-.2-6.3-.5-.9-1.4-.2-3.4 1.5-3.2 1.9-1.1 1.7.1 3.1.5 3.6 2.2 5.5-1.2 2.4-.9 3.8-3.5 3.5-3.9 2-.3 4.2-2.2 2.8-3.7 2.8-2.5 3.4.6 2.3.2 2.2-.4 1.5-.1 1.2-1 .5-5.7.4-1.6.7-2.1 1.7z"/><path fill="#EBEBEB" stroke="#949494" stroke-width=".5" stroke-opacity=".8" d="M950.9 234.1l-.1.6.2 1.7.8 1.6 2.8 1.7 4.1 3.3 4.9 6.1 2.2 1.8 2 .4 3.9 2.5 2.7.6 3 .7 7.9 5.3 3.6 1.5 2.5 2 .3 1.9-.1 1.2-4.6 1.3-.8 2.1-2.2-.2h-2.7l-.9 1.3 1.3 2.1.8 2.5-.7 3.4-.2.5-.6-.1-3.8 2-2.8.9-2.5.5-1.2-1-.6-1.3.1-3.8-.5-1.3-.9-.6-1.7.9-2 2.9-1.9 3.4-2.8 3.5-2.3 3.4-2.5 4.3-1.7 3.5 1.8 2 1.1 2.8-.3 2.1.3 1.2-.6 3.6-.1 2.3-5.5-3.6-2.3-5.1-8.1-8.7-9.3-5.9-.5-.9.5-1.1.4-.9-1.9-.1-1.3.7-1.3-.2-1.4-2.2-1.4-1.9-.1-1.7.6-.2.9-.7 2-1.9.4-1-.1-1.5-2.7-4.8-.4-3.1-.4-5.8.6-1.4 1-.7 4.8-.7-.1-4.5.3-1.4 1-1.9.6-1.7 2.7-2.5 3.6-2.9 1.6-.1 1.4.4 1.6 2.5 1.7-.3.4-3-2.2-4-1.2-2.5.4-1.4.8-.7 1.9.5 1.8.7 1.2-.5 1.8-.4h1zm111.8 56.6l5.5 6.8 3 2.8 3.5 2.1 4 1.5 1.5 1.5 2.6 7.2 1.2 2.7 1.7.8.4.8.1 1-1.9 5.1-.8 11.3-.5.9h-2l-2.7.2-1 .9-1.1 6.1-4.3 1.7-3.9 1-3.3-.2-5.8-1.4-1.9-.2-1.6.8-5.2.4-2.3 1.1-5.3 7.1-5.4 2.4-1.8 1.2-4.1-1.6-2-.2-2.9 1.8-6.2.2-1.7.3-4.8.3-.2-1-.9-1.4-2.2-.7-4.6.6-1.1-1-1.9-6-1.5-1-1.7-2-2.8-6.5-.1-2.9.2-2.5-1.6-5.9 1-1.5 1.4-.9V322l-.4-3.6 1.7-7.1.5-.5.4.3 4.1.6 1.1-.9.7-1.4.2-5.2 1-2.4 10-4.6 2.9-.2 2.2 2.1 1.8 1.4h1.1l.4-1.4 1.2-2.6 2-1.5 6.1-1.3h.1l2 .3 4.3-1.2 2.7-1.6 1.4-.2 1.8-.6 2.6.1 2.6.7 3.4-.9 3.3-1.5 1.3.4 1.4 1.3 1.1.2zm-285 276l-2.1.6-2.1-1.3-.5-.8 2.9-.6 1.4.6.6 1.1-.2.4zm8.9 7.3l-1.2 1.4-3.4-.1-3-2.1v-4.5l3.4.9 3.1 3 1.1 1.4zm-807-260.7l.7.4 2.1-.1 3.7-1.7 2.5-1.4.9.6 7.2-.8 1.7.7 1.1.7 3.6 1 3.9.1 4.8-1.4 2.1-1.4.4-1.6.1-1.2.6-.8 1-.4 1.7.8 2.4.6 5.9.3 1.1-.9 2 .3 2.6 1.1 3-.4 1.5 1.3.6 1.8.2 3.9-.2 3.9.6 1.4 2 .4h3.3l3 1 2.3 1.8.8 1.9.3 1.3-1.1.7-1.6 2.8-4 3.6-5.8 3.2-4.4 4-3 4.8-3.8 2-1.2 1.1-.5 1.3 2.5 5.9.8 4.5.6 5.5-.4 1.6-.2 6.1-.6 1.8.1 1.4.9 1.5.4 1.5-1.7 1.9-3.2 2.2-2.4 1.9-.6 1.8.2 1.1 4 3.8.7 1.6-.5 3.8L22 404l-2.2 3.7-.4.4-2.5 1.1H5l-2.9.8.4.8 2.8 4.8 2.9 2.5 1 .6 1.1 5.6 4.7 8.9 4.6 1.2 1.6 2.2-.3 3.1-1.4 3.4-2.8 3.5-3.4 2.5-2.2 2.4-.2 2.8-.7 3.6-1.1 2.8-.3 1.9 8.4 12 4.7-.6.6.3-.8 2.8-1.5 3.3-1.8.6-4 1-3.8 4.3-3.1 5.2-2.3 2.5-2.1 6.1.3 2.6 1 4.1 2.2 10.6-3.1.5-12.1 6.9h-3.7l-7-3-12.3-1-4-.9-5 2h-3.9l-3.1 2.5-2.2-.7 2.5-5.7 4-11.3-.2-6.9 1-6-1.1-6-2-3.7 2.7-9.7-.3-5-2.5-6.4 7.5 1-2.3-2.5-2.3-1.5-2.2.4-1.9-.1-6.4 2.5-3.2.7-.9-.4.4-3.9-1.7-5.1 2.6-1.4 3-.4 2.6-2.2 1.6-2.4-.8-4.4 2.2-4.1 5.2-3.5-2.7.5-3.1 2.2-4.9 7.9-1.6 4-4.1 1.3-3.7.6-1.9-.4-2.3-1-.2-3 .2-2.4 1.5-4.7.6-6.6 2.2-6-.2-1.6-.6-2.4 1.9-2.3 2.4-1.5 3.7-5.1 5.1-12.3 5.9-13.1-.5-1.6-1.3-1.2.5-3.6 3.6-15.5 1.4-2 1.7-4.6.4-7.4.7-5.1-.2-2.6-.5-3.1-2.3-5.9-2.4-12.5-.2-4.2 2-2.1-3.2-.3-1.5-2.7.3-3.1 3.6-5 3.3-3.1 3.3-2 1.8-.8 7.6-2.1 2-1 1.9.2.3 1 1.1 1.9 1.2 1.4.3 1-3 4.2-.4 1.4 1.5 2.7.7 1.2zm1291.3-170.7l3.7 5 4.7 2.7 11 2.8 1-.3.1-.5-.8-.7-.1-.9.5-1.1 1.5-.1 2.5 1 4.7-1.5 7-4 6.4-.8 5.8 2.4 3 2.7 1.9 2.6-.6 3.2-.4 2-1.5 8.3-1.1 3.1-1.7 3.5-18.1 4.1 1.2-2-.4-3.5-.8-2.6 1.7-2.4-4.1-.9-1.8 1.3-1.4 2.3 1.2 5.2-2 2.9-.8 1.6-.1 3.8-1.2 1.6-.2 1.8 2.9-.5-1.3 3.3-5.4 6.3-1.9 3.7.5 14.8-2.4 8.8-.2 2.6-5.7.1-1.7-.2-5.4-1.3-6.1-2.3-3.6-4.6-2.3-3.2-5.2 1.5-1-.4-1.4-1.6-3.9-1.1h-4.8l-10.8-5.9-1.2-1-8.5 1-12.7 2.9-9.7 3.6-10 6.5-4.1 4.9-4.7 2.6-6.7 1.9-12-.7-12.5-2.5-13.4-2.6-7.2 1.5-9.8-1.1-14.8-3.1-11-1-10.8 1.9-1.8-1.4-.4-1.6.4-2.3 1.5-1.9 2.6-1.4 1.4-1.4.2-1.4-2.9-2.3-6-3.2-2.5-2-.6-.5-.2-1.8-1.3-1.4-2.4-1-1.8-1.9-1.3-2.7.3-2.6 1.8-2.4 2.3-1.1 2.9.3 1.2-.7-.5-1.7-2.8-2.2-5.1-2.6-5.2 1.4-5.3 5.5-3.8.9-2.3-3.7-4.2-2.2-6-.7-3.7-1.4-1.4-2.1-2.6-1.7-5.8-1.8-.1-1.7.9-.4 2.1-.2 2.8-.4.4-1v-.9l-2.2-1.1-2.2-.8-1.2-.8-.7-.8-.2-.9.6-.6h.9l.9-.5.5-2 1.2-1.7.8-.6-.1-1.2-.9-1.2-1.2-1-1.8-.6-5.5-1.8-2.8-2.4-1.7-.1-2.7-1.4-2.9-2.1-2.5-3-2.7-2-.7-.8-.1-.8.5-.9v-.9l-.7-3 .5-3.1-.1-3V128l-.5-.4-.5.5-.7.6-.7.1-2-2.2-2.5-4.4-1.7-1.5-3.4-2-2.8-1.7-2-3.7-2.1-2.8 1.4-1.2 8.1-1.7 3.8 1.6 1.7-.6 1.6-1.3.9-1.1.2-1.1.8-1.4 2.7-.7 7.2.9 2.9-2 1.1-1.1.7-2.4.8-1.9 2.6-1v-1.8l-.4-1.9 1.5-4.3.9-1.8 1.5-.6 1.8-1.3 3.1-2.8-.7-2.4.6-1.8 3.2-4.4 2.4-4.3V66l.4-1.9 2.2-2 2.3-2.7 3-8.3 1.1-1.4 1.9-1.6 1.5-1.6.2-5.5 1.4-1.6 2.6-1.8 2.6-2.9 2.1-3.4 1.6-1.6 2.2-.4 2.3-1.3 2.6-.5 2.5.7 1.6-.3 2.4-1.7 6.2-6.3.9-1.2 1.3-.9 5-2.2 1.3-2.2 1.7-1.9 2.2.1 7.3 4.8 7.8-.3 1.4.2.5.1 1 .4 10.4 2.4 1.6-.3.4-.2 4.2 2 3.7-.3 3.5-1.4 3.7-.5 3.4.8 2.6 2.8 6.6 5.9 2 2.2 3-.3 3.4-1.1 3.4-3.9 10.5-4.4 8-1.1 7.8-1.8 9-1.3 2.6-3.6 1.4-2.5 1-4.6 4.9-1.3 4.6-.9 1.6-.6 3.4-.2 2.6.4 4 2.3 2.8 2.9 1.1 2.3 2.4 3.2 2.5 4.5 2.8 6 .6 3 1.1 3.3 2.1 4 4 4.4.6.8 1.8 3.1 3.5 6.8 2.9 2.7 2.5 3 1.2 3 1.8 2.7 4.3 3.6 3.5 3.2 2.8 9.3 1.9 4.3 1.2 3.2-.6 6.6.8 2.8-1.6 5.1-2.9 10.3-.7 8.1.5 4.4.1 2.8.7 1.8.8 3.7.1 3.2-1 .9-1.4.8-.6.7 1.3 1.4 1.8 2.7 1.6 2.7z"/><path fill="#EBEBEB" stroke="#949494" stroke-width=".5" stroke-opacity=".8" d="M969.7 108.4l4.3.3 3.2-.8 8.1 1 1.7.8 1.1.9 2.1 2.8 2 3.7 2.8 1.7 3.3 2 1.7 1.5 2.5 4.4 2 2.1.7-.1.7-.6.5-.4.5.4v1.3l.1 3-.5 3.1.7 3v.9l-.5.9.1.8.7.8 2.7 2 2.5 3 2.9 2.1 2.7 1.4 1.7.1 2.8 2.4 5.5 1.8 1.8.6 1.2 1 .9 1.2.1 1.2-.8.6-1.2 1.7-.5 2-.9.5h-.9l-.6.6.2.9.7.8 1.2.8 2.2.8 2.2 1.1v.9l-.4 1-2.8.4-2.1.2-.9.4.1 1.7 5.8 1.8 2.6 1.7 1.4 2.2 3.7 1.4 6 .7 4.2 2.2 2.4 3.7 3.8-.9 5.3-5.5 5.2-1.4 5.1 2.6 2.8 2.2.5 1.7-1.2.7-2.9-.3-2.3 1.1-1.8 2.4-.3 2.6 1.3 2.7 1.8 1.9 2.4 1 1.3 1.4.2 1.8.6.5-1.3.8-1.4 1.2-.8 2.2-.2 3.5-4.6 2.7-1.7.5-.8 1.8-1.2 5.1.1 3.8.6 1.9.3 1.6 1.5 1.9 1.3 3 .9 3.9 2 3 5 3 2.5 1.7 1.9 2.5 1.4 2.3 4.2 3-.3 2.1-.9 2.1-1 1-2.1 2.7-2 1.5-3.3 4.7-5.2.3-1.2.4-2 1.3-1 2.4.9 1.9-.1 1.9-.9 3.7 1.3 4 1.9 1.8.3 1-.3 1.9-2.8 3.8-.8 1.4-2.8.7-.9-.4-1.4-1.3-1.3-.4-3.3 1.5-3.4.9-2.6-.7-2.6-.1-1.8.6-1.4.2-2.7 1.6-4.3 1.2-2-.3-.7-1.5-.8-2.2.4-1 2.8-1.7.3-1.6 4-8 .8-2.6v-.8l-1-.6h-2.2l-9.7-3.2.4-3.7-2.8-2-3.1-1.8-.5-2-3.4-4-2.5-2.3-3.2-1.1-2.7-1.7-1.6-1-.7-1.9v-1.1l-.8-1.1-1.3.1-2.2 1.5-2.7 1.3-.5.9 1 2.2.7 1.4-.3 1.3-.9 1.7-5.3 3.8-.6 1.3 1 2.1-.6 1-4.4 1.4.1-1.2-.3-1.9-2.5-2-3.6-1.5-7.9-5.3-3-.7-2.7-.6-3.9-2.5-2-.4-2.2-1.8-4.9-6.1-4.1-3.3-2.8-1.7-.8-1.6-.2-1.7.1-.6 2.1-2.4 1.6-.3 2.1-.1 1.4 1.2 1.8.3 1-1.6.5-2.2-.2-2.9-4.4-6.7-3.8-4.6-.4-1 .8-.9 1.3-.5 1.4.4 3.7.3 3.6-.4 1.2-1.1V210l-1.3-1.4-4.2-3.8-3.2-3.4-3.8-2.6-2.8-1-.8-1.3-.4-1.4.3-2.6.2-3.3.7-2.1 2.6-3.9 2.4-4.2 1.5-4 .8-3.7-.3-1.1-1.3-.8-2.7-.8-3.7.7-3.2 1.4-1.2.1-.4-1.7.5-.7 1 .1.8.3.9-.8.5-2.2-1.3-7.9 2.4-.7v-1.1l.2-1 2.5 1.4h3.4l3-.3.5-.8v-1.1l-.6-.9-1.1-.7-.8-1.1-2-.5-6.4-2.8-3.1-3 .1-3.2.9-1.8 1.1-.6-.3-.6-3.6-1.5-1.3-2.1 1-2.7-1.9-5.4-2-3.3 1.9-1.4.3-2.1.2-1.2h.8l3.1-1.4 1.1-1.1.7-1.3.7-.3 2.1 1.4 2.2.1 2.5-.9 1.9-1.2 2.2-1 1-.7 1.3-1.1 2.6-3.3 2.9-.7 3.3.5zm409.4-361.1l1.3 1.5 2 3.2 3.2 4.1 3.3 3.6 1.1 2.2v1.6l-1.6 1.8.2 3.7 3.2 4.9-1.1.8-.3 5.9v6.3l.9 1.5 1.7 1.3 1.4 2.3 2.4 5.3.2 1.4.7.1 3.3 1.6 3.5 1.3 2.4.1 2.9-.3 3.4-1.8 2.3-1.7 2.8-8.8 1-1.3 1.6-.7 2.6-.1 4.9 1.6 5.7 1.5 3.3-.2 8.8-4.7 4.9-.7 5.8 1.1 5.7.1 4.3-.7 3 1.6 3.7 3.6 3.3 5.3 3.5 9.8 10.1 11 .2 2.1-.8 1.4-5 1.3-4.2.7-.2 1.9 1.1 2 1.9 3 .3 3.8-.1 3.5.8 3.1 1.6 1.3.2 1.5-1.8 1.9-.5 1.2.7.6 9.1.4 4.5 1.8 3.4 1.7 1.7.2 3.8-1.1 4.3-.7 2.6-.1 1 1.2.8 3.2 1.5 3.2 1.4.9 2.5-.2 1.5.2.8 1.2-.9 1.8.2 2 1.1 2.5 1.3 5.7 1.2 1.7.8 2.1v2.5l-1 2.1-.7 1.7.7 3.8 2.7 4.3 2 1.1 1.6 3.8 2.9 1.2 4.3-3.2 3.3-1.7 4.2.9 3.9.6 2.6 2.2 1.9 3 2.2 1.7 2.2-.9 4.6.9 2.1 2.4 2.1 1.4 2.7-2 2.2-2.4 8.1-2.5 5.1-.6 1.4-.5 3-1.8 3.1-1.2 2.8.3 2.8 3.8 2.9 2.6.8 4.1 3.5 5.6 8.7 7.7 3.4 2.3 2.3-.4 1.2-.6.6-.8.5-3.8 1.1-1.4h1.8l6.8 4.7 3.6.5 3.4.1 4.6 3.6 5 3.2 3.9.3 3.1-1.2 2.1-.8 1.3 1.2 1.2 2.7 2 2.1 2.3.6 3.3.1 5.8 4.1 5.5 4.1 3.4.2 2.9-1.2 2.6-.3 1.8 1 .5 1.8-1.3 2.4v3.4l2.4 3.3.1 3.2-.7 2.9-1.4 2.7-3.3 3.7-3.1 3.4-4.6 1.4-2.6 1.5.7 2.5 1.7 2.3 3.9 1.9 4.5 1.4.5 1.5-.7.8-2.9.7-3.9-.7-1.3 1.3-1.8 2.2-1.2 4-.9 3.7 4.3 1 2.5 1.5.8 3 .9 3.3.3 3-1.4 1.5-.1 1.5.7.7 1.8.3 1.4.7.7 1.6-2.7 3.6-2.5 6.8-1.3 3.6.1 3.9-1.6 2.1-2.8.1-9.5.4-8.3-.2-3.6-.6-5.6-.3-2.8.9-3.7 6.2-2.8 2.4-4.6 2.2-5 .6-2.9 2.6-1 4-.1 3.5-.5 1.8-1.1 1.6-.4 1.1.2 1.2 1.2.4 1.4.6v.9l-.5 1.1-1.6 1.2-.7 1.9.2 2 .3 2.2 9.6-4.2 3.3-3.2 6.6-1.1-.9 1.3-3.2 1.2-3.3 3.1 4.1.3 9.2-1.6 3.4-4.8 6.1.2 1.7 3.5 1.7 4.7-.2 1.7-.7 1.3-5.1 1-11.6 5.8-6 1.7-6.8 3 1.8 4 .5 3.4-5.6-.7-4-1.1-2.5.5-6.8 3.6-3.6-.8-3.6-.1 1.5 5.1 3.7 6.2 2.3 1.2 3.6-.6 8.4 7.5 6.3 7.4-3.3.5-3.2-.8h-4.6l-1.8 4.5-1.9 3.3-.3-1.7.1-2.3-2.1-1.5-2.9 2.3-3.3 9.9-6.1 7.1-2 4.3-.1 3.2.9.6 1.3-.1v2.8l-.9 2.5-13.6 3.2-1.8 1.9-3.9-1.5-4.5-3.9-4-2.1-2.6.8-2.6 1.8 1.5 1.1 1.8.4 4.6 2.4-2.4 1.8-9 3.2.3 1.7.8 1.2 10.4 2.7 9.2 4.7 2.8 3.2 2.4 5.6 2.1 2.5 3 1.9 2.7 1.2 4.7.5 5.2-1.8 11.7 13.3 4.6 2.2 11.5 2.7 2.9 1.4 21.7 18.5 6.6 8 12.7 12 3.7 2.5 1.6-3 2.2-3.2 2.3-.8 6.8 1.3 6.3 1.4 4.6-1 5.4 2.5 5 2.9 5 2 9.8 1.9 3.6 2.7 4.2 2.7 16.7 1.4 1.3-.4 1.2-.4 5.6-1 4.9.2 5.2 3.2 3.3-.2 3.6-.5 4.6 1.7 3.6 1.9.3 1.9 3.2 2.8 9.2 4.3 7.4 2.4 2.3 1.7 5.7 2.8.6.9-.1 1.1-1.6 2.1-.4 1.9.8 1.1 2.3 1 4.7.2 1.7-1.3 3.5-1 3.4-1.7 4.6-2.3 6.3-2.1h2.5l2.4.6 1.7 1.2 2.8 4.3 2.8-6 .7-.5 2.6 1.2 4.6 1.7 3.2.9 1.7 1.2 4.8 5.5 7.8-.3 3.3.8 1.8.9.8 1.1-1.4 5.4-1.9 5.6.2 1.4 3.1 2.1 4.2 2.2 2.3 1.8 1.6 1.6 3.3 1.2 4 .8 1.9.1 2 1.4 5.1 2.5.6.6 3.8.9.5 2.6.7.6 1.6-.3 2.6-1.1 2.1.9 2.7 3.1 3.7 3.3 2 2.2.8 1.5 1.9 1.5 2.8 1.8 2.2 2.8 2 6.4 2 1.5 7.2 2.4 2.5.5 7.1.9 2.5-.6 3.6-5.5 3.3-5.7 3.1-1.2 5.5-2.7 3.3-2.6 1.4-2.8 3.1-5.3 1.9-3-3.4-2.8-1.8-.9-1.5-1.4-2.9-5.8-2.6-4.6-5.3-7.9-9.2-12-1.9-1.4-1.5-1.7-.7-6-2.6-4.3-3.8-3-1.4-1.5-.9-1.6 1.8-8.6v-2.4l-.8-5.2.7-6 2.1-8.2 2.1-5.7.7-3.7-3 2.4-3.5 13.2-1.2-10.6-2.4-10.1-1.9-5.2-2.7-4.2-3.8-3.3-3.5-3.9-3.8-2.1-5.8-1.6-1.1-1.5-.5-2.5.3-2.7 1.4-4.6 3.1-3 4.1-3.1.9-2.1.7-2.4 1.3 1.8 1.6 1 1.1-4.3 1.7-3.1 2.1-2.6 2.6-6 2-3.3 1.4-3.7.8-6.1 1.5-.6 1.2-1.1.9-1.7.5-1.9-.2-3.5-2.2-3.8.6-.4 1 .7 2.3 1.9 2.1 2.4.6-3.5 1.8-1.4 2.2 1 2.4.1 7.9-2.8 3.8-.8 3.5-2 8.1-7.7 1.8-.3 1.8.3 1.7 1.4 1.9.8 1.4-.4.7-1.2-1.6-2.7-.6-2.6-.1-2.8 2.1-.7h2.4l9.6-4.4 1.1-1.9.5-2.6 4.3-.5-.5-2.2-1.7-.6-8-4.6-6.6-3.3-5.8-2.9-.8-.5-1.6-1.4-1.1-2.2-.2-2.4.6-1.8 1.4-1.1 1.7-.4 1.5.4 1.6 1.1 2.9 1.3 3.8.2 2.4-1 .3-2.4-4.5-9-4.2-7.3-4-8.1-1.7-2.9-4.9-6.8-4.9-6.7-3.9-6-2-1.8-6.2-.8-11.9-1.5-4.2-.7-3.4 1.8-3.4 1.4-3.2-2.6-2.5-4.3-1.3-3.6.6-3.7.3-5.4-1.9-5.4-2.1-2.7-5.4-2-6.8-4.5-1.8-8.3 3.3-11.9 5.3-8.5 3.9-3.6 1.8-3.1.6-2.7-.5-2.6-2.3-2.7-3.6-2.7-1.8-3.3.7-7.1 2.4-10.2 3.6-8.2 4.9-4.6 4.2-3.3 1.7-3.1.1-4.3-.1-4.1 1.1-3 1.8-2.4 1.9-2.1 2.6-2.4 3.4-.6 3.8 1.9 5.1 5.1 7.5 10 4.3 6.6 1.5 2 3.9 3.9 3.5 1.6 5.9-2.4 5.6-2.8 1.8-1.8 1.2-2.7-.9-4.6-1.2-3-1.3-3.8-1.7-6.7-1.2-10.5-1.5-3.3 1.1-.4 2.8.7 2.6.3 3.7-2.3 5.1-4.4 9.4-6.8 2-4.5 1.6-5 2.6-3.1 6-1 5.5-1.6 3.9-3.6 6.1-3.1 5-1.9 2.2-1.8 1.6-2.6 5.8-7.4 4.5-4.6 4-4.7 1.3-3 3.1.5 4.8 2.1 5.2 1.9 3.8 2.9.7 3 .4 2.3 1.5 1.2 1.8.2 2.8-.6 4.8-.1 5.9-3.8 8.2-6.5 7.5-2M855.8 91.2l-3.1-1.2-3.8-.5-.7.7-1.5.7-.8 1.2.6 4.7-.9.8-4.3-.5-1.4.5-2.3 3.2-2.4 1.4-3 1-2.2 1.2-2.8 1-2.4.6-1 1.4-.6 1.6.2 1.5 2.5 3 .3 3.2-.3 3.9-.6 2.1-1 1.4-6.1 1.8-6.3 3.2-.1.7 2.9 2.8.1.7-2.4 1.6-.2 1.6.3 1.9 1.3 1.9.5 1.7-3.5 1.2-4.7-.5-5.5-2.4-1.9.3-1.9 1.2-1.9-.5-2.1-1.5-3-3.1-1.5-1.9-.6-2-.8-.3-1.2.6-1 2.4-2.8 4.3-2 1.2-3.1-.3-4.3.1-2.7.4-3.3-1.5-.8.3v1l-1.2 1.6-2 1-9.3-2.3-1.3-1.9 2.1-.9 2.9-2.5 2 .3 2.5-.5 1.1-1.1-1.5-3.2-3.9-3.9-2.1-1.5-2.8-1-.5-1.1 1.6-6.2-.5-.9-3.2.3-.8-.6-.3-1.1.2-1.5 2.2-2.4 2.4-2.2.7-1.2-.1-1-3.1-.9-1.9-1-1.5-.3-1 .5-.7-.6-.8-1.8.8-2.8 2.8-2.5 3-2.3 2.6-1.7 1.5-.7.7-2.8 1.6.3 3.1.1 3.5.6 3.2.8 2.8 1 5.9 1 5.4.6 1.6.6h1.3l1.7.8 1-.7.7-1.1 2.9-1.4 2.7-1.8 1.9-2.2 1.1-1.8 1.9-1.3 2-.4 1.8-.6 7.7-.8 7.9.7 3.8-1.3 3.1-2.2 4.5-.6h.2l6.8 1.7.5-1 .3-.4-.1-4.7 2.2-2.2 2-.9 6.8.3.9 1.5.4 2.3.6 3 1.1.8.6 1.2-.1 2.1 1.3 1.6 3.1 4.2-.2 1.1zm213.8-130.3l-.5 2.1-1.5 2.5-1.8 2.6-1.5 3.1-2 6.6-1.3 3.1-5.4 6-.4 8.4-.7.6-12.2 2.8-1.6-.4-1.7-1.6-.9-1.2-.6-.9-1.1-2.3-1.4-1.6-2.1-1.4-1.9-1.6-2.4-.1-6.6 2.2-4.6.2-3.1-.7-4.1-1.3-7.9-.2-5.4 1.2-.5 1.6-5 10.2-7.3 3.8-6.3 3.8-1.8.8-3.2-1.2-3.6-2.3-3-1.2-2.2.7-2.4 2.6-1.1 2.6-7.2 1.9-12.3 1.2-4.3 2.6-1.5 3.1-.1 2.4 1.1 2-1.3 2.3-.6 1-8.8.5-11.8.6-7-.2-6.6-.2-4.5-2-5.5-3.9-5.8-5.2-.6-.1-.9-.6-3.6-.4-1 .3L876 14l-.6-2.2-3.4-5.9-3.8-9.7-.1-2.8 1.5-3.2 1.4-2.4.2-1.9.1-.5 1.2-4 2.8-5.4 2.6-3.1 1.9-1 3.9.9 6.6.8 5.1-.7 4.7-2.4 2.6-2.1 2.2-2.2.7-1.4 1-.7 3.9-1.3 1.3-1.5.5-2.8.3-3.1.8-2.3 1-1.7 7.2-4.1.7-1.5 1.2-1.4 2.2-1.6 2.1-2.3 2.2-1.4 2.8.2 2.6-.3 2-.8.6-.2 3.8.6.7 2.6.4 2.7 6.4-.2 3.6-5.8 1.9-.7 3-2 2-1.8 1.4 1.1 1.9 3.8 2.1 3 1.2 1.2.1.9 1.2.6 2.3.3 1.6.9.5 2.8v2.5l-.7 1.8-.4 1.6 1.6.6 2.4-.6 1.7-.9 5 2.1 1.8-4.7 2-2.4 2.6-1.1 2.4-1.4 2.1-1 1.5.1.6-.4 1.8.1 2.1.5 2.9-.5 4 1.1 2.5 2.2 2.5.7 2.8-.1 1.9-1.2 2.8-4.1 2 .1 3.2-.6h4.5l10.3.9 2.6 1.6 6.3 2 2.8 2.3 1.2 2.8.6 1.9 6.5 2.9 9.6 3.7 2 .4zM712.8 216.7l-2.1.4-1-1.9 1.6-2.2 2.2-.4.4 1.7-1.1 2.4zM1773 520.9v.6l-.3 1.5-4 4.2-5.4 5.7-3.9 3.6-6.6 6.1-4.9 1.3-8.3 2.2-2.2 2.1-2.1 3.4-1.2 4.7-.4 2.9-.2 5.4 1.9 5.7 1.9 5.4.2 3.6-.2 3.5-1.8 3.8-2 5.1-1.1 5.8-.6 10.8v9.2l-.2 1.5-3.4 6.5-4 7.6-1.8 1.7-8.7 2.2-9.5 5.5-10.6 6.2-9.7 5.6-10.1 5.8-10.5 6.1-7.5 4.3-10.1 5.8-9.2 5.5-9.3 5.6-7.1 4.2-10.7 6.7-6.3 3.9-9.2 5.7-8.1 5-9.6 6-12-1.8-3.8-1-3.1-2.8-2.3-1.5-5.7-1.6-3.7-5.4-2.2-1.9-3.8-.9.5-1.9 2-3.2 2-3.5-1.1-2-.4-1.7-.1-2 1.4-1.9-.6-2.3-1.1-2.3-.8-1.2v-2.1l.5-1.6.6-2.5 1.6-1.4.4-1.4 1.5-1.4 1.9-1.1.4-.9-.3-.5-1.9-1-1.1-1.8.9-2.6.6-.8 1.2-1.3 2.6-1.9 2-.3h1.8l3 .2 2.3.4.6-.5-.1-.6-2.9-1.6-.2-1.3.7-1.4 2-2.2 2.4-1.6 1.2-.3 2.8-3.2 1.8-3.6-2.9-8.7-1.7-1.4-2.8-1.2-1.7-.2-.1-.6 2.2-2.2 1.6-1.9-1.7-1.8-3.1-.9-1.2 1.9-4 .2h-6.2l-2.7-9.2-.4-4 .1-4.6 1.9-6.8-.9-3.2-.1-2.1-.5-2.9-4.9-6.3 2.7-11.6 1.9-2.8 2.7.3 5.7 3.3.9-.1 1.7-4.4 1.7-1.5 3.5-1.3 1-7.1 1.6-1.3 2-.7 3-.1 2.6-.4.2-1.2-3.7-8.2.3-2.1 1.8-8.2 1.1-3.2 1.1-1.1 4.2.4 5.9 1.5 1.6 2.4 2.9 2.1 4.3-.1 5 .4 3.9.1 3.1-1.5 7-2.8 3.4-.9 3.2-1.2 10.1-4.5 4.1.4 2.8.6 2.1.7 4.8 3.1 3.9 3.1 2.8.9 5-.1 7.2.6h8.8l5.1-.9 6.6-1.5 11.7-3.7 15.4-7.8 9.1-3.8 3.9-.5h5.1l5.1 1 5.8.7 2.7-.1 6.2-.8 8.1-1.6 5.1-1.3 6.1-2.1 3.8-3.5 1.2-.4 1.6.6.7.2 1.6 2 1.6 5.1zM678 684.1l-.1 1.1-1.3 7.7-.3 2.8-.2 4.7v5.6l2.8 4.7.1 2.1-1.1 2.4-5.2 2.7-6.7 3.5-5.8 3.4-6.3 3.7-1.9 2.4-3.2 1.8-2.6 1.8-.5 1.8-1.8 3.3-2.4 2.7-6 1.3-1.1.8-2.8 4-1.3 1.6-1.6 3.3 2 8.5 2.5 8.7.5 3.6v3l-1.4 3.2-3.2 4.6-2.4 3.4-4.5 6.1-1.3 1.5-3.1 1.8-6 2.3-4.2 2.1-2.2-9.3-1.8-7.9-1.5-6.6-2.7-11.6-2.3-9.9-2.3-9.9-2.1-9-2.1-9.1-.9-1.3-6.2-4.3-5.7-4-6-4.5-6.5-4.9-1-6.2-3.3-9.3-3.5-5.2-1.3-1.4-7-3.4-4.1-2.5-1.1-1.5-.8-3.8-2.9-7.6-3.3-6.9-1.2-4.7-.2-5.9.6-4.3 1.4-1.8 6.9-5.3 3.2-6.4 3.9-2.4 3.4-1.8 2.8-2.1 2.5-3.4 1.9-3.6.3-3.9.8-6.2 1.3-4.4 2.9-5-1.2-4-1.5-4.3.4-7.5-.4-3-1.2-2.7-1.3-3.5v-2.9l1.2-7.6.9-5.8 1.5-7.6-.5-2.1-1.1-1.6-3.3-1.7v-1l.8-1.1 4.9-3.7 2.6-5.4 2.2-1.1 3.4-2-.1-2.1-.8-2.3 8.8-2.6 8.3-6.7 2.9-1.7 19.4-6.2 2.5.4 2.8.9-.8 2.3-1.1 1.8 1.6 3.2 2.4-2-.6-1.3-.1-1.8 4-.2 3.5.3 3.9 1.9-.3 7.3 5.2 7.2-1.5 3.6 4.2 2.1 3.8-2.5 1.9-3.7 6.9-2.2 6.6-5.5 3.6-.6.8 4.5 1.8 3.9-2.5 1.4-3.2 4.2-6 10.6-5.5 3.1-4.1 4.1-1.3 2.9-.4 3.4 1 6 3 6.1 3.5 3.7 3.4 1.1 7.8 5.8-.1 3.4 1.1 4.1.4 5 2.7 4-5.8 8.6-3.2 6.2-6.2 8.5-5.5 5.5-11.9 8.2-2.9 2.7-1.9 2.8-.9 2.9.3 3.4 3.9 8.5 5.2 5 5.3 2.7 9.2-1.1-.3 3.2.7 3.9 3.7-.2 2.5-.6 2.1-3.8 4.5 2.6 2.3 7.9 3.8 2.5.4.9-1.3.6-1 .9 1.1.6 3.7 1 2.2-.6 3.7 2.2zm-8.1-64.3l-5.5 3 1-2.6 3.6-3.1.9.8v1.9zm-11.3 42.4l-.9.2-1.7 1.1-.9.1-2.6-1.3h-1l-1.2-.9.4-4.8.4-1.3 6.3-.2 3.4 2.9.6.8.1.8-1.6 1.6-1.3 1z"/><path fill="#EBEBEB" stroke="#949494" stroke-width=".5" stroke-opacity=".8" d="M1263.9 306.5l-1 5.2 2.2 5.7 5.2 7.9 5.3 4 21.3 9.9 3.9.8-.9 4-1.3 3.6-1.4 2.4-6.2 1.5-17.2-4.4-4.4-.4-3.1.9-5.7 3.2-6.3-1-8.8 1.8-2.5 6-6.1 6.8-10.1 5.5-7.2 3-10.8 10.6-4.9 6.1-2.1 1.2-2.5 1 .8-3 1.2-2.7-.3-2 .1-3 3.6-3.4 3.3-2.4 9.7-4.4 2.6-3.7-7.6.1-7.7.8-4.8-.5-4.2.3-1.3-3.2-1-1.9 1.1-.6 1.4-.4 2.5-3.5 2.2-2.5 3.2-3.2.8-1.9v-1.8l-.8-1.2-.2-1.5-.1-2.1.2-4.3 7.3-4.7 2.3-.5.8-2.2-.5-5-1-4-1.3-.3-1.8-1.2-1.2-1.4-1.8-1.5-3.2-.9-.1-1.3.3-1.3 1.2-1.3 5.4-1.1.6-.9.7-2.3 1.1-2.3 1.3-.8 2.3.1 4.3-.5 3-.8 3-1.6 1.5-1.5 6.4-.8 1.8-.7 1.8.6 2.4 2.5 4 3.6 2.1 1.2 1.6-.5 2.9-1.3h2.8l2.2.2 1.1-1.1 1.7-.2 4.9.5zm479 20.6l2.4.9 4.4 1.2 2.8 1.4 1.6.4 3.6-2.9 5.4.1 4.7.3 2.4.5 3 1 3.6.6 1.5-1.4 2.1-4 .8-.5.6-.4 2.7-.3 2.5.3 1.2.7 1.2 3.2 3 1.2 5.3 5.2 3.3 2.1.8.9-1.1 1 .4 1.3 1.9 1.7 2.6.6 2.8-.2 1.5.6 1.1 1 .3 1.3-.1.9.6 1.9 2.2 2.7 2.6 1.7 1.4 1.8 2.3 6.1.9 3.3-.4 3.2-1.6 3.3-3.5 4.1.9 1.7.8 2.3-.3 1.6 2.5 5.2 1.1 3.2-.9.8-.6 1 4.4 2.5 5.3 2.1 2.2.4 6.1-1 3.9-.2 3.9 2 5.7 4.8 6.2 6.2 1.2 1.9.5.8 1.2 1.5h-1.2l-2-1.4-4.9-3.8-2.5 1.7-2.2 2.8-2.4 10.8-1.9 1.1h-3.4l-4.1-.4-2.8.5-.7.7.4 1.2.8 1.8.6 2.2.2 1.8 1.5 1.7 2 1.6.1 1.6-.3 2.3-.5 1.7-.5 1 .9 2.6 2.2 3.1 1.4 1.2-.5 5.9.8 2.6.6 3.6-.3 6 .3 1.5.7.5 2 .2 1.9.5.7 1v.7l-2.4 2.7-.3 1.9-.8 2.7-.7 1.6-2.2 3-1.4 3.1-.6 2.5.4 1.2 4 .4 2.2 1.8 5.8 3.6 1 1.5-1.6 2.2v.9l.8 1.2.4 2.1-.1 2.3v3l1.1.5 3.9 2.8 2.8 2.8.1.9-1.4 2.2.3 2.6-.1.6-1.2-1-2.2-.4-2.2-.1-1.4.8-2.5 2-3.3 2.2-2.7 2-1.6 1.4-1.3-.2-1-1.2-.6-1.7.2-6.4-.6-2-1.3-1.4-1.5-.8-1.8-.5h-1.8l-2.6 1.9-3.7 2-5.7-.2-3.8-.4-1.8-.4-7.4-3-1.5-.1-2.8-1.2-3.3-1-5.5 1.8-2.4-.4-3.3-1.6-1.2.4-3.7 4.8-6.4 5.1-3.4.9-1.6-5.2-1.6-2-.7-.2-1.6-.6-1.2.4-3.8 3.5-6.1 2.1-5.1 1.3-8.1 1.6-6.2.8-2.7.1-5.8-.7-5.1-1h-5.1l-3.9.5-9.1 3.8-15.4 7.8-11.7 3.7-6.6 1.5-5.1.9h-8.8l-7.2-.6-5 .1-2.8-.9-3.9-3.1-4.8-3.1-2.1-.7-2.8-.6-4-.4-10.1 4.5-3.2 1.2-3.5.9-7 2.8-3.1 1.5-3.9-.1-5-.4-4.3.1-2.9-2.1-1.6-2.4-5.9-1.5-4.2-.4-1.1 1.1-1.1 3.2-1.8 8.3-.3 2.1 3.7 8.2-.2 1.2-2.6.4-3 .1-2 .7-1.6 1.3-1 7.1-3.5 1.3-1.7 1.5-1.7 4.4-.9.1-5.7-3.3-2.7-.3 2.3-3.4-2.5-6.8-2.7-6.3 2.6-4.1 5.3-4.9 5.6-5.8V536l-.3-2.7-1.6-1.9-3.1-2.5-5.1 2.7-3.7 3-2.4.6-2.6 1.7-1.3 3-3.1 2.4-5.1.9-7.7-2.5-8.3-3.8-4.7-3.1-3.8-.8-3.6 1.4-10.7 7.6-9.8 11.1-2.4 1.9-9.2 4.8-6.1 1.6-2.9-.4-12.2 2.1-6 .3-4.8 2.5-9.3-2.7-5.5-3.5-3.3-3.5-5.4-7.7-3.9-3.6-8.7-3.3-15.1-8-4-.9-10.3-1.1-10.9-.7-2.2 2.9-.8 11.5-1.9 3.2-.8 5.9-1.3 1.7-2.1 1.1-3.3-1.9-2.3-.8-5.3 2.4-10.4 3.4-3.6.5-12.1-4.3-4.4-2.8-2.9-3.1-1-5.2-1.8-3-.3-2-.7-2.3-2.4-.9-2.6 1.8-2.8-.1-3.5-1.1-8.3-4.4-6.4-.4-3.8 5.3-3 1.7-3.3.5-.2-1.5 2.5-3.5-10 .6-5.2 2.6-4.1-.4-3.1-1.2.5-1.4 3.1-.5 2.7-1.2 10.8-1 2.5-1 2.8-3.8 5-3.2.6-1.4h-3.9l-16.5.9-11.3-.5-1.3 1.6-1.7.2-.5-4.4 1.8-2 2.4.2 5.9-1.8-.5-3.6-4.2-2.5-.9-1.5-3.1-.3-2.5-1.7-.5-4.4-2-4.8-2.8-2.3.4-1.3 5.2-1.6 1.1-6.8-.8-4.1-2.6-.4-7.6-3.3-2.3.4-2.5-3.6-4.4-2.6-2.2.9-1.4 1.2-2-.6-3.4-2.2-3.4-1.2-1.5-1.5 1.9-4 2.6.1.5-3.1-2-5.3.2-2.7 2.2-.7 2.6.5 2.6 3.1.8 3-.5 3 1.6 2.9 1.2.7.8-3 1.1-.6 1.5 1.3 3.2.7 8.4-1.9 1.6-1.6-6.2.2-2.2-1.5-2.5-3.3-1.5-3-.3-1.5-.8-2.2.9-1.2 4.2-1.7 3.7-4.9-1.6-1.4-1.8-.7-1.9.5-1.8-1.7-.2-2.3 1.5-1.9.2-2.6-4.8-6.4-1.3-1.4 1-2.1 3.6-3.5 3.5-4.3-.4-1.4-2.6-.6-12.2 1.9-4.7 1.6-8.4.7-.6-2.4.2-2.1 1.9-3.9-.2-9.6 1.1-5.2 4.7-1.6 5.8-7.6 9.3-9 9.7.2 3.9-2.5 5.8-.1 1 1.8.7 1.7 5.1 2.5 9-.4 2.2-1 2.1-1.4-4.2-4.5 1.3-1.3 3.8-.1 4.1 1 .2 1-1.1 1.4-1.3 2.4 1.2.5 11.6-1.5 12.1 1.2 3.9-.6h9.5l1.7-1.5-2.9-1.9-2.8-.7-1.9-.9-1.9-1.4 6-4.3 3.4-.8 16.1-2.7 12-1.3.2-1h-1.7l-15.5-2.2-3.7-1.7-5.2-4.1-1.1-1.2-1.3-2 .8-4.2 1-3.4 1.9-2 6.2-.3 21.2 3.5 15.1-2.1 16.5 5.1 15.8-1 3.2-2.3 4-7.3 22.3-12.2 7.8-6.4 8.4-3.5 14.4-3.9 12-5.2 3.4-.6 28.8 2.5 19.8.3 9.1-4.9 5.3 1.6-.5 1.7-1 1.5.3 3 3.1 4.4 3.2 3 9.2 4.3 12.8-3.6 2.1.4 2.6 1 4.5 11.6 3.5 4.1 4.5 2.8 3.7.5 2.7-2.9 2.1-1.2 4.6-.5 7.6 4 2.6 4.1 12.9 3.2 11.9 1.6 5.1 3.5 16.7 3.5 6.2-.5 10.5-3.6 20.4-4 13.5 5.6 3.7.7 3.2-.5 4.6 1.5 4.9-.8 15-6.6 4.7-3.7 5-1 4.4-2.2 11.7-7.4 3.9-3zm-551.5 62l-8.2 1.4-2.5-1.4 2.6-2.7 4.8-1.7 1.5-.2 2.1 2.7-.3 1.9zm434.5-327.3l-1.3.6-12.4-.8-10.1 1.1-7.2 7.9h-4.3l-6.1 2-4.1 2.5-4.9 5.5-3.8-2.5-4.6.1-4.5 1.5-5.4 3.7-3 .6-6-1-7 2.1-15.2 12-5.1 8.7-1.9 1.7-2.6 2.1-2.7 1.1-1.4-.1 7.2-6.2 2.2-2.3.4-1.7v-2.8l-2.2-3.5-5.9 8.6-3.3 1.2-4.3 2.6-.2 5.7.5 4.2 1.7 5.3 4.1 8.7 8.4 12.3 4 4.5 3 1.8 3.6.3 6.9-3.8 2.9-.6 6.4 1.4 2.3-2.5 3.3-1.4 4.2-.2 4.9 1.1 5.3 1.9-2.2 4.3-2.2 3.5-.8 3.8-1.3 4.2-5.8 1.9-6.2-.2-6.6 1.2-2.4-1.6-1.6-1.5-2.9-1.5-3.8-.8-3.4 1-4.1 5.8-7.2 3.9-2.4 4.5-7.1-1-6.1.8-8.8 4.1-6.7 8.8-7.4 5.5-5.8 1.7-5.5-.5-3.5-1.6-7.3-5.7.4-2.1 1-1 1.4-3 2.9-10.9-.4-3.6-1.6-5.6-5.8-4.4-4.6.8-2.6-1.2-9.5-7.4-5.2-.5-5.7 1.5-2.1-1.1-1.6-2.6 11.4-9.2 11.2-7.6 4.9-.8 6.6-3.6 7.1-5.3-1-4.2-1.5-3.1-3.4.9-2.5 1-5.9-3.3-2.2-2.5-9.2 2.6-5.1-.4-11.4 2.3-5.2-2.3-10.4-6.4-3.9-1.3-3.3.3-1.8-2.1 2.2-1.1 2.6-.1 2.7-.8.8-1.1-.2-2.1-5.4-1.6-5-.5-3.2-1.9-2.4-2.2h5.7l5.8 1.7 9 .6 8.2 1.7 2-2.1 4.7-3.7.9-1.2-7.9 2.5-8.1-1.6-2.9-2.2-2.5-3.3-1.1-3.8.7-3.5-.9-6.3-2.7-5.7-.9-3.1-2.8-2.8 2.8 6.3 1 4.2 1.7 3.8-.4 10.2-1 3.6-3.3.9-4.3-.5-4.4-1.1 1.1-5.6-2.4 1.9-3.3 5.4-2.9.8-6.5-.6-12.1 3.6-.8 3.9-1.8 5.3-1.8 3.1-.5 1.8-5.1 7.9-.7.8-9.7 10.9-1.2.8-6.3 2.5-3.7 2.2-2.9 1-4.8-1.1-2 1.6-.9 1.9v4l2.5 2.9 2 9.6-.7 4-1.9-2.6-3-2.8-5.8-2.4-6.4.8-7 4-4.7 1.5-2.5-1-1.5.1-.5 1.1.1.9.8.7-.1.5-1 .3-11-2.8-4.7-2.7-3.7-5 1.9-1.6 1.6-.7 5.7-.4 1-.5.1-1.2.4-1.5-.2-2.2-.6-2.3 2.5-3.4 3.7-2.8 2.2-2.8.3-4.2 3.9-2 3.5-3.5.9-3.8 1.2-2.4-2.2-5.5-.5-3.6-.1-3.1 1.1-1.7 3.2-1.9 3.4-1.5 1.4.1.5.9.1 6.2.7.1 1.1-.8 1.8-3.6 1.2 1.1 1.9.4 1.4-.9.9.1 1.1.9 2.3 1.3 2.1.4 1.8-.9 1.5-1.6 1.6.5 3 4.3 1.4-.5 7-.9 1.1-1.2.8-1.1-7.3-5.7.4-4.3.3-4.9-.9-2.9-1.8-1.5-5.6-2.7-4.3-2.8-.9-1.3-.1-1.6-.2-2.5-1.7-2.2-.2-1.9 1.1-2.9.3-3.1-.4-1.2-1-1-1.9-.1-2.6-1.8-1.8-2.4-4.7-3.5-1.4-.6-.9-1.7-.4-2 1-2.5 1.2-3.9.9-3.7v-2.2l-.6-5.4-2.5-4.2-1.2-.5-2 1.2-2.3 1-1.8-.9-2-2.3-3.3-6.3-6.1-1.3-2.5-.3-2.4 3-.7-.9-.7-1.9-1.3-.8-1.7.9-.5-.9.7-2.6-2-1.3h-4.7l-2.5-1-.3-2-1.5-1.3-2.7-.6-2.6-1.6-2.5-2.6-3.8-1.7-5-.8-.4-.3-.5-.4-3.2 1.8-1.9 1.4-2.4-.9-3.8 3.1-7.8.2-3.8-.2-1.9-.8-7.3 4.8-.8 1.8-1.6.6-4.6.9-4.9 1.3-1 4.6-1.4 2.5-2.6 3.6-9 1.3-7.8 1.8-8 1.1-10.5 4.5-3.4 3.9-3.4 1.1-3 .3-2-2.2-6.6-5.9-2.6-2.8-3.4-.8-3.7.5-3.5 1.4-3.7.3-4.2-2-.4.2-1.6.3-10.4-2.4-1-.4-.5-.1-1.4-.2-7.8.3-7.3-4.8-2.2-.1-1.7 1.9-1.3 2.2-5 2.2-1.3.9-.7-.7-.3-1.9.4-1.7-.7-1.6-1.9-1.8-.5-.7-2.4.1-.7.2h-.2l-3.3-1.5-2.2-3.6-3.4-1.9-2.6-.7-1.2-1.6-.8-2.1-.8-1.6-.1-.2-.6-2.4-.8-.2-.1-.1-3.4.4.4-8.4 5.4-6 1.3-3.1 2-6.6 1.5-3.1 1.8-2.6 1.5-2.5.5-2.1 1.5-.2 4.3 1.9 3.9 1 1.1-.9.4-1.2-.2-1-3.1-2.9-1.9-1.8-.1-1.1.7-2.5.4-2.8-.4-3.1-2.1-6.8-.4-2.9 2-3.5 6.6-8.4 2.2-3.2 3-3.8 8.1-9.2 5.1-5.4 3.5-3 5.1-5.2 2.2-2.7 9.3-1.8 1.2-2.5 1.7-2.7 1.3-1.2.2-4.6-1.7-5.7-1.4-2-1-1.4.7-1.3 1-.4 1.3-.2 1.6-1.4-.4-1.5-3.9-3.6-1.7-2.8-2.6-7.2-5.4-7.5-1.7-2.4-.2-2.3.8-2.3-.7-3-1.9-3.8.3-.4-.2-4.7 1.4-1 2.1-.7 3 .2 2.6.7 3.1 2.1 1-.3 5.3-4 5.4-6.1 1.6-3.5 1.4-1.6 4.7-.9 4.1-.4 2.6.1 6.4-.6 3.8-.7 3.3-1.1 7.1-.4 11.1.7 7.3.1 5 .6 12.1 3.2 4.5.6 2.1 1.7 4 .6 7.3 1.7 6.4.9 4.3-.4 2.4.5 4.6 7.6.9.9 1.8.2 3.7-.7 5.3.3 3.1 1.6-.5 4.5.8.7 1.5-.3 1.7-2.5 1.4-2.6 1.1-.8 5.4 1.8 2.5-.3 2.3-2 1.4-.3 3.8 1.4 4.7 1 3.8.1 2.4 1.1 1.7 4.7 1.5 1 1.5.3 2.2-4.2 2-1.6 2.8-1.2 1.8-.5 1.3-1.5 1.7-1.4 1.5-.1 1.2.6 1.4 2 2 4.6 2.4 4.6 1.7 1.7 4.4-1.4 3-1.4 5.4-.3 7.2-1 5.5-1.3 3.4.2 2.1 1.5 3.2 2.8.9 4 4.1 2.8 3.4.5 1.2-2.9 2-2-.7-2.8-.3-3.6-1.5-3.3-1-3.6 1.8-5.1 2-4.4 1-2.4 3.1-4.5 3.2-3.2 4.8-5.1 3.5-1.7 3.2.8 1.8.7 4.5-3.1 8.1-.2 6.7.4.7.1 3.3 1.6 3.5 1.3 2.4.1 2.9-.3 3.4-1.8 2.3-1.7 2.8-8.8 1-1.3 1.6-.7 2.6-.1 4.9 1.6 5.7 1.5 3.3-.2 8.8-4.7 4.9-.7 5.8 1.1 5.7.1 4.3-.7 3 1.6 3.7 3.6 3.3 5.3 3.5 9.8 10.1 11 .2 2.1-.8 1.4-5 1.3-4.2.7-.2 1.9 1.1 2 1.9 3 .3 3.8-.1 3.5.8 3.1 1.6 1.3.2 1.5-1.8 1.9-.5 1.2.7.6 9.1.4 4.5 1.8 3.4 1.7 1.7.2 3.8-1.1 4.3-.7 2.6-.1 1 1.2.8 3.2 1.5 3.2 1.4.9 2.5-.2 1.5.2.8 1.2-.9 1.8.2 2 1.1 2.5 1.3 5.7 1.2 1.7.8 2.1v2.5l-1 2.1-.7 1.7.7 3.8 2.7 4.3 2 1.1 1.6 3.8 2.9 1.2 4.3-3.2 3.3-1.7 4.2.9 3.9.6 2.6 2.2 1.9 3 2.2 1.7 2.2-.9 4.6.9 2.1 2.4 2.1 1.4 2.7-2 2.2-2.4 8.1-2.5 5.1-.6 1.4-.5 3-1.8 3.1-1.2 2.8.3 2.8 3.8 2.9 2.6.8 4.1 3.5 5.6 8.7 7.7 3.4 2.3 2.3-.4 1.2-.6.6-.8.5-3.8 1.1-1.4h1.8l6.8 4.7 3.6.5 3.4.1 4.6 3.6 5 3.2 3.9.3 3.1-1.2 2.1-.8 1.3 1.2 1.2 2.7 2 2.1 2.3.6 3.3.1 5.8 4.1 5.5 4.1 3.4.2 2.9-1.2 2.6-.3 1.8 1 .5 1.8-1.3 2.4v3.4l2.4 3.3.1 3.2-.7 2.9-1.4 2.7-3.3 3.7-3.1 3.4-4.6 1.4-2.6 1.5.7 2.5 1.7 2.3 3.9 1.9 4.4 1.4.5 1.5-.7.8-2.9.7-3.9-.7-1.3 1.3-1.8 2.2-1.2 4-.9 3.7 4.3 1 2.5 1.5.8 3 .9 3.3.3 3L1684-1l-.1 1.5.7.7 1.8.3 1.4.7.1 1.6-2.7 3.6-2.5 6.8-1.4 3.6.1 3.9-1.5 2.2-2.8.3-9.5.4-8.3-.2-3.6-.6-5.6-.3-2.8.9-3.7 6.2-2.8 2.4-4.6 2.2-5 .6-2.9 2.6-1 4-.1 3.5-.5 1.8-1.1 1.6-.4 1.1.2 1.2 1.2.4 1.4.6v.9l-.5 1.1-1.6 1.2-.7 1.9.2 2 .5 2.1zm-220.1 44l4.9 2.4-5-.6-11-2.3-4.8-2.2-1.3-2.4-.7-3.3 2.7 3.4 1.9 1.5 13.3 3.5zM711.2 309.7h-.3l-.1-.2.1-.2h.3v.4z"/></svg>